<?xml version="1.0" encoding="UTF-8"?>
<svg version="1.1" xmlns="http://www.w3.org/2000/svg" width="500" height="500">
<path d="M0 0 C20.06391464 18.09195423 34.48088862 41.43900352 36.72509766 68.97143555 C37.58329774 89.08070697 34.75654367 107.31271822 25.50390625 125.2578125 C24.941875 126.35609375 24.37984375 127.454375 23.80078125 128.5859375 C17.57458709 140.00965026 9.92295487 150.59003204 2.50390625 161.2578125 C3.31214844 161.54398438 4.12039063 161.83015625 4.953125 162.125 C5.79488281 162.49882812 6.63664063 162.87265625 7.50390625 163.2578125 C8.31640625 165.3828125 8.31640625 165.3828125 8.50390625 167.2578125 C7.84390625 167.2578125 7.18390625 167.2578125 6.50390625 167.2578125 C6.59066345 169.88446153 6.69748606 172.50759332 6.81640625 175.1328125 C6.83896484 175.87917969 6.86152344 176.62554687 6.88476562 177.39453125 C6.9820257 179.3574165 7.23432919 181.31109572 7.50390625 183.2578125 C10.70092227 185.38915651 11.27241651 185.45475392 14.87890625 185.2578125 C18.5648413 185.16160539 21.16684026 185.53545586 24.50390625 187.2578125 C25.40768896 193.31175683 25.55754466 199.08827061 25.43359375 205.19921875 C25.42270039 207.10089631 25.41498339 209.00259425 25.41015625 210.90429688 C25.40228455 213.87069703 25.37860001 216.83213084 25.30175781 219.79760742 C24.52415938 231.14560409 24.52415938 231.14560409 28.88330078 241.00415039 C31.73423799 242.88310998 31.73423799 242.88310998 34.734375 244.05908203 C39.54460036 246.1410819 43.17129173 250.59258346 45.50390625 255.2578125 C46.15310254 260.48331052 45.94372965 265.05047442 42.9453125 269.57421875 C25.18216052 290.32196537 -11.21355962 294.45228774 -36.77124023 296.52319336 C-77.03194268 299.46897023 -132.61845828 300.67196971 -166.5390625 274.95703125 C-170.67133611 271.36912901 -174.07501938 267.88181321 -174.734375 262.20703125 C-174.91724068 256.63444012 -174.28235114 253.6120085 -170.49609375 249.2578125 C-160.19501848 239.2578125 -160.19501848 239.2578125 -155.49609375 239.2578125 C-155.51704102 238.64260742 -155.53798828 238.02740234 -155.55957031 237.39355469 C-155.64286392 234.59847441 -155.69479388 231.80365535 -155.74609375 229.0078125 C-155.79636719 227.55568359 -155.79636719 227.55568359 -155.84765625 226.07421875 C-155.94481405 219.03027796 -155.94481405 219.03027796 -154.0234375 215.72265625 C-150.42459461 213.63677358 -146.86714535 212.86067957 -142.80859375 212.0703125 C-142.04353516 211.90595703 -141.27847656 211.74160156 -140.49023438 211.57226562 C-133.49379082 210.11639237 -126.64607129 209.2578125 -119.49609375 209.2578125 C-119.49609375 205.2978125 -119.49609375 201.3378125 -119.49609375 197.2578125 C-115.86609375 196.9278125 -112.23609375 196.5978125 -108.49609375 196.2578125 C-112.36902872 190.37555515 -116.24277238 184.49383137 -120.1171875 178.61254883 C-121.42826892 176.6221266 -122.73914941 174.631572 -124.04980469 172.64086914 C-125.96102614 169.73807312 -127.87295964 166.83574747 -129.78515625 163.93359375 C-130.42060867 162.96863983 -131.0560611 162.00368591 -131.71076965 161.00949097 C-134.92878099 156.12857614 -138.16089194 151.25793217 -141.4206543 146.40478516 C-142.05131805 145.46467087 -142.68198181 144.52455658 -143.33175659 143.55595398 C-144.51794253 141.7899736 -145.70688447 140.02583975 -146.89920044 138.26399231 C-162.96483646 114.34006336 -169.95205809 86.40436065 -164.31835938 57.66650391 C-163.51174441 54.15185688 -162.56638578 50.70082146 -161.49609375 47.2578125 C-161.14546875 46.11570312 -160.79484375 44.97359375 -160.43359375 43.796875 C-155.83352766 30.60362988 -148.30399289 19.14309151 -138.49609375 9.2578125 C-137.69171875 8.4121875 -136.88734375 7.5665625 -136.05859375 6.6953125 C-135.21296875 5.8909375 -134.36734375 5.0865625 -133.49609375 4.2578125 C-132.84898437 3.60425781 -132.201875 2.95070313 -131.53515625 2.27734375 C-96.53396013 -31.50288042 -36.5077902 -30.67376112 0 0 Z M-103.49609375 42.2578125 C-108.95276582 49.05072953 -113.58297156 56.69346176 -115.49609375 65.2578125 C-115.72296875 66.2271875 -115.94984375 67.1965625 -116.18359375 68.1953125 C-117.73602215 83.40911081 -114.51998764 96.71051969 -105.38671875 109.125 C-97.04592414 118.85592705 -86.36413282 126.29364677 -73.49609375 128.2578125 C-56.50284031 129.27807673 -43.04939952 126.6590319 -29.50390625 115.63671875 C-18.99417383 105.89770004 -13.20433418 92.45602871 -12.46484375 78.2578125 C-12.61754536 63.59845765 -18.11430426 51.43763328 -27.80859375 40.6953125 C-39.45682605 30.1306367 -51.48802171 24.68466555 -67.3828125 25.0078125 C-81.41255625 26.13441677 -93.65518335 32.27365741 -103.49609375 42.2578125 Z M-0.49609375 164.2578125 C-4.35370853 168.7514794 -7.97733774 173.85396215 -7.93359375 179.9453125 C-7.78921875 181.0384375 -7.64484375 182.1315625 -7.49609375 183.2578125 C-3.53609375 182.9278125 0.42390625 182.5978125 4.50390625 182.2578125 C4.55804425 180.00807803 4.59676116 177.75796867 4.62890625 175.5078125 C4.65210938 174.25484375 4.6753125 173.001875 4.69921875 171.7109375 C4.51927927 168.52960758 4.19389207 166.89259354 2.50390625 164.2578125 C1.51390625 164.2578125 0.52390625 164.2578125 -0.49609375 164.2578125 Z M-11.49609375 181.2578125 C-13.83896793 183.93028884 -13.83896793 183.93028884 -14.49609375 187.2578125 C-13.17609375 186.5978125 -11.85609375 185.9378125 -10.49609375 185.2578125 C-10.82609375 183.9378125 -11.15609375 182.6178125 -11.49609375 181.2578125 Z M-1.49609375 184.2578125 C-2.48609375 184.9178125 -3.47609375 185.5778125 -4.49609375 186.2578125 C-2.18609375 186.2578125 0.12390625 186.2578125 2.50390625 186.2578125 C1.18390625 185.5978125 -0.13609375 184.9378125 -1.49609375 184.2578125 Z M-53.28979492 194.5144043 C-54.78196972 196.67097589 -54.81120706 197.85050862 -54.68359375 200.4453125 C-54.62171875 201.7034375 -54.55984375 202.9615625 -54.49609375 204.2578125 C-55.17188477 204.29745117 -55.84767578 204.33708984 -56.54394531 204.37792969 C-59.61286648 204.5687489 -62.67912166 204.78795787 -65.74609375 205.0078125 C-67.34130859 205.100625 -67.34130859 205.100625 -68.96875 205.1953125 C-69.99355469 205.27265625 -71.01835937 205.35 -72.07421875 205.4296875 C-73.0168457 205.4925293 -73.95947266 205.55537109 -74.93066406 205.62011719 C-78.19143543 206.43065533 -79.46469527 207.61127638 -81.49609375 210.2578125 C-82.16038149 217.79898806 -80.91609538 225.33183076 -79.99609375 232.8203125 C-79.78146484 234.61952148 -79.78146484 234.61952148 -79.5625 236.45507812 C-79.21172201 239.38992065 -78.85614516 242.32409573 -78.49609375 245.2578125 C-78.16609375 245.2578125 -77.83609375 245.2578125 -77.49609375 245.2578125 C-77.44598145 244.33967773 -77.39586914 243.42154297 -77.34423828 242.47558594 C-77.15366859 239.06088829 -76.9552248 235.64683627 -76.75146484 232.23291016 C-76.664981 230.7568544 -76.58161579 229.2806124 -76.50146484 227.80419922 C-76.38553353 225.67879176 -76.25830513 223.55431237 -76.12890625 221.4296875 C-76.05559082 220.1519043 -75.98227539 218.87412109 -75.90673828 217.55761719 C-75.53386728 214.56134821 -75.16540669 212.73739199 -73.49609375 210.2578125 C-69.52801336 208.06777906 -65.24851136 207.69055064 -60.80859375 207.1953125 C-56.00780311 206.7760405 -56.00780311 206.7760405 -51.49609375 205.2578125 C-51.49609375 202.6178125 -51.49609375 199.9778125 -51.49609375 197.2578125 C-47.05823765 196.14616018 -42.72652989 196.14253487 -38.18359375 196.1953125 C-37.44302734 196.19982422 -36.70246094 196.20433594 -35.93945312 196.20898438 C-34.12496476 196.22069075 -32.31051841 196.23862352 -30.49609375 196.2578125 C-30.49609375 195.2678125 -30.49609375 194.2778125 -30.49609375 193.2578125 C-33.93343438 193.17077427 -37.37049212 193.11740978 -40.80859375 193.0703125 C-41.78505859 193.04517578 -42.76152344 193.02003906 -43.76757812 192.99414062 C-44.70537109 192.98447266 -45.64316406 192.97480469 -46.609375 192.96484375 C-47.47344971 192.9491333 -48.33752441 192.93342285 -49.2277832 192.91723633 C-51.5439571 193.09266389 -51.5439571 193.09266389 -53.28979492 194.5144043 Z M-115.49609375 200.2578125 C-117.07977477 203.42517454 -116.91666081 205.773114 -116.49609375 209.2578125 C-114.28741626 211.7912955 -113.61950383 212.36925618 -110.49609375 213.2578125 C-105.80913389 213.57548422 -101.18558086 213.48907488 -96.49609375 213.2578125 C-96.98980469 212.48695313 -97.48351562 211.71609375 -97.9921875 210.921875 C-98.63285156 209.91898438 -99.27351563 208.91609375 -99.93359375 207.8828125 C-100.89072266 206.38621094 -100.89072266 206.38621094 -101.8671875 204.859375 C-103.49609375 202.2578125 -103.49609375 202.2578125 -104.49609375 200.2578125 C-108.12609375 200.2578125 -111.75609375 200.2578125 -115.49609375 200.2578125 Z M-46.49609375 200.2578125 C-46.49609375 201.9078125 -46.49609375 203.5578125 -46.49609375 205.2578125 C-41.54609375 205.2578125 -36.59609375 205.2578125 -31.49609375 205.2578125 C-31.49609375 203.6078125 -31.49609375 201.9578125 -31.49609375 200.2578125 C-36.44609375 200.2578125 -41.39609375 200.2578125 -46.49609375 200.2578125 Z M-91.49609375 221.2578125 C-91.49609375 222.2478125 -91.49609375 223.2378125 -91.49609375 224.2578125 C-90.83609375 223.9278125 -90.17609375 223.5978125 -89.49609375 223.2578125 C-90.15609375 222.5978125 -90.81609375 221.9378125 -91.49609375 221.2578125 Z " fill="#171719" transform="translate(314.49609375,46.7421875)"/>
<path d="M0 0 C4.45769887 -0.10473301 7.93305056 -0.02945637 11.97265625 2.125 C12.87643896 8.17894433 13.02629466 13.95545811 12.90234375 20.06640625 C12.89145039 21.96808381 12.88373339 23.86978175 12.87890625 25.77148438 C12.87103455 28.73788453 12.84735001 31.69931834 12.77050781 34.66479492 C11.99290938 46.01279159 11.99290938 46.01279159 16.35205078 55.87133789 C19.20298799 57.75029748 19.20298799 57.75029748 22.203125 58.92626953 C27.01335036 61.0082694 30.64004173 65.45977096 32.97265625 70.125 C33.62185254 75.35049802 33.41247965 79.91766192 30.4140625 84.44140625 C12.65091052 105.18915287 -23.74480962 109.31947524 -49.30249023 111.39038086 C-89.56319268 114.33615773 -145.14970828 115.53915721 -179.0703125 89.82421875 C-183.20258611 86.23631651 -186.60626938 82.74900071 -187.265625 77.07421875 C-187.44769506 71.52587312 -186.78549228 68.4765404 -183.02734375 64.125 C-181.09073846 62.33954439 -179.11602372 60.73897998 -177.02734375 59.125 C-176.92421875 59.764375 -176.82109375 60.40375 -176.71484375 61.0625 C-176.48796875 61.743125 -176.26109375 62.42375 -176.02734375 63.125 C-175.03734375 63.455 -174.04734375 63.785 -173.02734375 64.125 C-173.02734375 66.435 -173.02734375 68.745 -173.02734375 71.125 C-174.01734375 71.125 -175.00734375 71.125 -176.02734375 71.125 C-176.02734375 72.445 -176.02734375 73.765 -176.02734375 75.125 C-174.37734375 75.455 -172.72734375 75.785 -171.02734375 76.125 C-170.69734375 77.115 -170.36734375 78.105 -170.02734375 79.125 C-169.16238281 79.25261719 -168.29742187 79.38023437 -167.40625 79.51171875 C-164.1422759 80.10413948 -161.12446056 80.93489087 -157.96484375 81.9375 C-156.8459375 82.28941406 -155.72703125 82.64132812 -154.57421875 83.00390625 C-152.81851563 83.55884766 -152.81851563 83.55884766 -151.02734375 84.125 C-148.59045081 84.8769701 -146.15297594 85.6270577 -143.71484375 86.375 C-141.81901042 86.95833333 -139.92317708 87.54166667 -138.02734375 88.125 C-138.02734375 87.465 -138.02734375 86.805 -138.02734375 86.125 C-137.14046875 86.145625 -136.25359375 86.16625 -135.33984375 86.1875 C-132.15210729 86.25780506 -132.15210729 86.25780506 -129.65234375 85.5 C-125.77578211 84.94620548 -122.77638313 86.04476831 -119.02734375 87.125 C-119.02734375 87.785 -119.02734375 88.445 -119.02734375 89.125 C-117.37734375 89.455 -115.72734375 89.785 -114.02734375 90.125 C-113.69734375 88.475 -113.36734375 86.825 -113.02734375 85.125 C-111.70734375 84.795 -110.38734375 84.465 -109.02734375 84.125 C-108.03734375 85.61 -108.03734375 85.61 -107.02734375 87.125 C-106.36734375 84.815 -105.70734375 82.505 -105.02734375 80.125 C-107.00734375 79.63 -107.00734375 79.63 -109.02734375 79.125 C-109.02734375 75.165 -109.02734375 71.205 -109.02734375 67.125 C-108.03734375 66.795 -107.04734375 66.465 -106.02734375 66.125 C-105.26098284 62.66410321 -104.85585004 59.36422512 -104.7109375 55.82421875 C-104.66904297 54.84775391 -104.62714844 53.87128906 -104.58398438 52.86523438 C-104.54466797 51.85783203 -104.50535156 50.85042969 -104.46484375 49.8125 C-104.42166016 48.78576172 -104.37847656 47.75902344 -104.33398438 46.70117188 C-104.2282755 44.17590431 -104.12617907 41.65054438 -104.02734375 39.125 C-100.35684521 39.72433417 -100.08918646 40.04216762 -97.66796875 43.28515625 C-96.8588782 44.57837476 -96.06237672 45.8795379 -95.27734375 47.1875 C-94.86613281 47.85072266 -94.45492187 48.51394531 -94.03125 49.19726562 C-93.01910039 50.83318186 -92.02176868 52.47824932 -91.02734375 54.125 C-90.98246826 53.39385986 -90.93759277 52.66271973 -90.89135742 51.90942383 C-90.67953805 48.58441365 -90.44740567 45.2611211 -90.21484375 41.9375 C-90.10946289 40.21176758 -90.10946289 40.21176758 -90.00195312 38.45117188 C-89.92138672 37.33935547 -89.84082031 36.22753906 -89.7578125 35.08203125 C-89.68973389 34.06085205 -89.62165527 33.03967285 -89.55151367 31.98754883 C-88.96192794 28.76775715 -87.93206636 26.77035045 -86.02734375 24.125 C-81.81422113 21.67568922 -76.98063917 21.4873655 -72.21484375 21 C-71.42658203 20.91363281 -70.63832031 20.82726562 -69.82617188 20.73828125 C-67.89391291 20.52748936 -65.96071112 20.32537104 -64.02734375 20.125 C-64.02734375 17.485 -64.02734375 14.845 -64.02734375 12.125 C-57.65970307 8.72892497 -49.86681046 9.68511227 -43.02734375 11.125 C-43.06859375 10.34125 -43.10984375 9.5575 -43.15234375 8.75 C-43.02734375 6.125 -43.02734375 6.125 -41.02734375 4.125 C-39.03466797 3.63842773 -39.03466797 3.63842773 -36.58203125 3.30859375 C-35.67743164 3.18460205 -34.77283203 3.06061035 -33.84082031 2.93286133 C-32.38627441 2.74953247 -32.38627441 2.74953247 -30.90234375 2.5625 C-29.91202148 2.43319092 -28.92169922 2.30388184 -27.90136719 2.1706543 C-18.59841223 0.99613745 -9.36609007 0.38672888 0 0 Z M-59.02734375 15.125 C-59.02734375 16.775 -59.02734375 18.425 -59.02734375 20.125 C-54.07734375 20.125 -49.12734375 20.125 -44.02734375 20.125 C-44.02734375 18.475 -44.02734375 16.825 -44.02734375 15.125 C-48.97734375 15.125 -53.92734375 15.125 -59.02734375 15.125 Z " fill="#A0A0A7" transform="translate(327.02734375,231.875)"/>
<path d="M0 0 C3.56255095 -0.02701176 7.12489629 -0.04684512 10.6875 -0.0625 C12.19860352 -0.07506836 12.19860352 -0.07506836 13.74023438 -0.08789062 C14.71669922 -0.09111328 15.69316406 -0.09433594 16.69921875 -0.09765625 C17.59471436 -0.10289307 18.49020996 -0.10812988 19.4128418 -0.11352539 C22.03641759 0.00159802 24.44293053 0.41765715 27 1 C27 2.32 27 3.64 27 5 C26.01 5 25.02 5 24 5 C24 4.34 24 3.68 24 3 C17.4 3 10.8 3 4 3 C4 5.97 4 8.94 4 12 C4.66 12.33 5.32 12.66 6 13 C6 13.66 6 14.32 6 15 C5.360625 14.814375 4.72125 14.62875 4.0625 14.4375 C3.0415625 14.2209375 3.0415625 14.2209375 2 14 C1.67 14.33 1.34 14.66 1 15 C-0.66617115 15.04063832 -2.33388095 15.042721 -4 15 C-4 15.66 -4 16.32 -4 17 C-2.94941406 17.06058594 -1.89882812 17.12117188 -0.81640625 17.18359375 C2.7956741 17.39609437 6.40636875 17.62585369 10.01660156 17.86767578 C11.66441124 17.97761089 13.31263023 18.08139 14.9609375 18.18359375 C19.11955087 18.52208554 21.2557138 18.84195989 24 22 C24.33 21.34 24.66 20.68 25 20 C25.99 20 26.98 20 28 20 C29.63462276 25.3503955 28.91703949 30.85347483 28.6875 36.375 C28.63432617 38.06109375 28.63432617 38.06109375 28.58007812 39.78125 C28.36671405 45.16948898 28.17464036 49.97613697 26 55 C25.01 55 24.02 55 23 55 C23.495 60.94 23.495 60.94 24 67 C25.485 67.495 25.485 67.495 27 68 C26.74438677 70.3431213 26.40729228 72.67843403 26 75 C25.01 75.495 25.01 75.495 24 76 C23.67 74.68 23.34 73.36 23 72 C21.68 72.33 20.36 72.66 19 73 C18.67 74.65 18.34 76.3 18 78 C16.35 77.67 14.7 77.34 13 77 C13 76.34 13 75.68 13 75 C4.33644448 73.77495073 4.33644448 73.77495073 -4 76 C-4 75.34 -4 74.68 -4 74 C-4.66 74 -5.32 74 -6 74 C-6 74.66 -6 75.32 -6 76 C-11.58374552 75.14173893 -16.78316708 74.33357682 -21.91015625 71.8515625 C-26.0854853 70.15021346 -30.53083099 69.18519374 -34.890625 68.0625 C-37.91940456 67.02754015 -38.95840912 66.31884397 -41 64 C-41.99 63.67 -42.98 63.34 -44 63 C-44 61.68 -44 60.36 -44 59 C-43.01 59 -42.02 59 -41 59 C-41 56.69 -41 54.38 -41 52 C-42.32 51.67 -43.64 51.34 -45 51 C-44.875 48.75 -44.875 48.75 -44 46 C-38.91891892 42 -38.91891892 42 -36 42 C-36.02094727 41.38479492 -36.04189453 40.76958984 -36.06347656 40.13574219 C-36.14677017 37.34066191 -36.19870013 34.54584285 -36.25 31.75 C-36.30027344 30.29787109 -36.30027344 30.29787109 -36.3515625 28.81640625 C-36.4487203 21.77246546 -36.4487203 21.77246546 -34.52734375 18.46484375 C-30.92850086 16.37896108 -27.3710516 15.60286707 -23.3125 14.8125 C-22.16491211 14.5659668 -22.16491211 14.5659668 -20.99414062 14.31445312 C-13.99769707 12.85857987 -7.14997754 12 0 12 C0 8.04 0 4.08 0 0 Z " fill="#171718" transform="translate(195,244)"/>
<path d="M0 0 C2.37845706 0.13948971 4.75919001 0.2437236 7.140625 0.31640625 C8.45804687 0.35830078 9.77546875 0.40019531 11.1328125 0.44335938 C12.50520704 0.48311759 13.87760289 0.52283066 15.25 0.5625 C16.63803164 0.60577469 18.02605265 0.64939156 19.4140625 0.69335938 C26.20583334 0.91675088 26.20583334 0.91675088 33 1 C33.495 9.91 33.495 9.91 34 19 C33.34 19 32.68 19 32 19 C31.94581674 21.08304538 31.90712449 23.16649768 31.875 25.25 C31.85179687 26.41015625 31.82859375 27.5703125 31.8046875 28.765625 C31.99737051 31.95645571 32.57002248 33.25598908 34 36 C35.07911874 45.71206866 32.92584013 54.37079935 31 64 C15.16 64 -0.68 64 -17 64 C-17 59.05 -17 54.1 -17 49 C-17.12794422 46.35201169 -17.28209428 43.70460691 -17.5 41.0625 C-17.5928125 39.89847656 -17.685625 38.73445313 -17.78125 37.53515625 C-17.8534375 36.69855469 -17.925625 35.86195313 -18 35 C-16.515 34.505 -16.515 34.505 -15 34 C-15.14026283 31.68715544 -15.28735558 29.37472409 -15.4375 27.0625 C-15.51871094 25.77472656 -15.59992188 24.48695313 -15.68359375 23.16015625 C-15.64919188 20.13976043 -15.64919188 20.13976043 -17 19 C-17.02172852 17.23413086 -17.02172852 17.23413086 -16.87890625 14.96484375 C-16.83056641 14.15595703 -16.78222656 13.34707031 -16.73242188 12.51367188 C-16.67634766 11.66353516 -16.62027344 10.81339844 -16.5625 9.9375 C-16.51029297 9.08349609 -16.45808594 8.22949219 -16.40429688 7.34960938 C-16.27421239 5.23278005 -16.13770029 3.11634756 -16 1 C-10.13487854 -0.53395484 -6.08257754 -0.87045475 0 0 Z " fill="#E3E3E5" transform="translate(275,253)"/>
<path d="M0 0 C6.93 0 13.86 0 21 0 C24.3 8.25 27.6 16.5 31 25 C34.90811417 16.73283541 38.71630819 8.53759872 42 0 C46.62 0 51.24 0 56 0 C59.63 8.25 63.26 16.5 67 25 C71.10667153 15.99951478 71.10667153 15.99951478 74.75 6.875 C76.89513109 1.10486891 76.89513109 1.10486891 78 0 C79.4887186 -0.08669432 80.981445 -0.10703494 82.47265625 -0.09765625 C83.37177734 -0.09443359 84.27089844 -0.09121094 85.19726562 -0.08789062 C86.61555664 -0.07532227 86.61555664 -0.07532227 88.0625 -0.0625 C89.4865918 -0.05573242 89.4865918 -0.05573242 90.93945312 -0.04882812 C93.29303065 -0.0370011 95.64648477 -0.02052025 98 0 C96.40451389 5.32577758 94.09819038 10.14785925 91.6484375 15.1171875 C91.02009506 16.4029216 91.02009506 16.4029216 90.37905884 17.71463013 C89.0478822 20.43648826 87.71152446 23.15576448 86.375 25.875 C85.46840615 27.72639416 84.56215241 29.57795491 83.65625 31.4296875 C81.4414336 35.95506344 79.22196882 40.4781319 77 45 C71.06 45 65.12 45 59 45 C55.7 36.42 52.4 27.84 49 19 C45.7 27.58 42.4 36.16 39 45 C33.06 45 27.12 45 21 45 C13.77817469 30.09200189 6.72791767 15.13781476 0 0 Z " fill="#010101" transform="translate(158,421)"/>
<path d="M0 0 C4.53490556 3.19328313 6.72656013 7.73467362 8.16015625 12.9375 C9.196728 20.27812036 8.27188419 26.69691884 4.16015625 32.9375 C-0.76745982 38.77149105 -7.14378787 41.43439477 -14.65649414 42.23925781 C-17.7026202 42.37489796 -20.72841793 42.39610647 -23.77734375 42.375 C-24.79763672 42.39498047 -25.81792969 42.41496094 -26.86914062 42.43554688 C-36.18459699 42.4296021 -44.53003596 40.15016609 -51.43359375 33.62109375 C-55.85875012 28.32319821 -56.33801371 22.2521761 -56.125 15.546875 C-55.45780509 9.44158456 -52.529278 3.92409521 -47.83984375 -0.0625 C-33.86636096 -7.91164776 -13.80367792 -7.97155073 0 0 Z M-33.83984375 10.9375 C-36.40616892 14.35926689 -36.20419426 17.78390421 -35.83984375 21.9375 C-34.13829702 25.76598015 -32.68771388 27.39288428 -28.83984375 28.9375 C-24.25356169 29.51171743 -20.1251011 29.4730239 -15.83984375 27.6875 C-12.54022738 24.80033567 -11.96617922 22.91208789 -11.40234375 18.5625 C-11.98290081 13.7521701 -13.45376968 12.32357407 -16.83984375 8.9375 C-22.07587529 6.31948423 -29.48029516 7.12289499 -33.83984375 10.9375 Z " fill="#000000" transform="translate(479.83984375,425.0625)"/>
<path d="M0 0 C1.30904297 -0.01740234 1.30904297 -0.01740234 2.64453125 -0.03515625 C11.63117292 0.00478438 20.91644242 1.82636846 27.5 8.375 C31.5 13.87054896 31.5 13.87054896 31.5 17.375 C27.91682042 17.46220919 24.33391433 17.51546112 20.75 17.5625 C19.73421875 17.58763672 18.7184375 17.61277344 17.671875 17.63867188 C16.6921875 17.64833984 15.7125 17.65800781 14.703125 17.66796875 C13.80239258 17.6836792 12.90166016 17.69938965 11.97363281 17.71557617 C9.02652475 17.3098107 7.76441807 16.23942333 5.5 14.375 C3.05065593 13.94061191 3.05065593 13.94061191 0.5 14.0625 C-0.345625 14.06636719 -1.19125 14.07023437 -2.0625 14.07421875 C-4.68184242 14.39743889 -6.28732546 14.94916016 -8.5 16.375 C-11.20505765 20.43258647 -11.24174825 23.61614327 -10.5 28.375 C-9.07210724 31.72276204 -9.07210724 31.72276204 -5.5 33.375 C-0.80337894 33.77923918 3.79892365 33.66126311 8.5 33.375 C7.18 33.045 5.86 32.715 4.5 32.375 C4.5 29.405 4.5 26.435 4.5 23.375 C13.41 23.375 22.32 23.375 31.5 23.375 C31.520625 27.149375 31.54125 30.92375 31.5625 34.8125 C31.571604 36.00415771 31.58070801 37.19581543 31.59008789 38.42358398 C31.59258545 39.35501221 31.59508301 40.28644043 31.59765625 41.24609375 C31.60289307 42.20443115 31.60812988 43.16276855 31.61352539 44.15014648 C31.5 46.375 31.5 46.375 30.5 47.375 C27.82941149 47.51615161 25.17567762 47.41747107 22.5 47.375 C22.005 45.395 22.005 45.395 21.5 43.375 C20.96117187 43.66375 20.42234375 43.9525 19.8671875 44.25 C8.84634202 49.22492711 -6.39553604 49.46085288 -17.9375 45.875 C-23.8119109 43.22112627 -27.84001666 38.75085837 -30.66015625 33.015625 C-32.65545011 26.74204987 -32.66110402 18.99255099 -29.9375 12.9375 C-25.8560401 6.19669166 -20.69134395 3.08372576 -13.24658203 0.97485352 C-8.81488077 0.00696996 -4.52023664 -0.06009177 0 0 Z " fill="#010101" transform="translate(374.5,419.625)"/>
<path d="M0 0 C1.30904297 -0.01740234 1.30904297 -0.01740234 2.64453125 -0.03515625 C10.53042317 -0.00010784 18.95952348 1.09519938 24.9375 6.6875 C25.86369141 7.51701172 25.86369141 7.51701172 26.80859375 8.36328125 C30.93731898 13.27388978 31.91366264 17.53432728 31.875 23.875 C31.88660156 25.77765625 31.88660156 25.77765625 31.8984375 27.71875 C31.19780307 34.14810127 28.37697654 38.25666426 23.5 42.375 C12.10335118 49.14034133 -2.49637287 49.16829209 -15.28515625 46.62109375 C-21.42365533 44.46797509 -26.30243425 41.66650153 -29.8125 36.0625 C-32.62965599 29.98156574 -32.28913637 22.90137108 -31.5 16.375 C-29.89665063 12.40503014 -28.12267135 9.54019 -24.9375 6.6875 C-24.33808594 6.12675781 -23.73867187 5.56601562 -23.12109375 4.98828125 C-15.98029097 0.59312246 -8.21036678 -0.10914816 0 0 Z M-10.5 17.375 C-12.19932147 20.31019164 -12.51645196 21.98015287 -12.375 25.375 C-11.36530833 28.8368 -9.96052585 30.76535137 -7.5 33.375 C-3.552288 35.348856 1.19647348 34.81032783 5.5 34.375 C9.34513641 32.41319571 10.22604726 30.97997896 12 27.0625 C12.62063564 22.48531213 11.79065944 20.34547637 9.5 16.375 C5.61367681 12.71075242 2.2660872 12.87286144 -2.8671875 13.0234375 C-6.47799234 13.50559245 -8.17009725 14.59414833 -10.5 17.375 Z " fill="#000000" transform="translate(116.5,419.625)"/>
<path d="M0 0 C0.90814453 -0.020625 1.81628906 -0.04125 2.75195312 -0.0625 C10.26443739 -0.10552067 17.20260604 0.94090393 23.25 5.6875 C26.86011905 9.29761905 26.86011905 9.29761905 27.8125 12.25 C27.8125 13.57 27.8125 14.89 27.8125 16.25 C24.35423658 16.30789006 20.89609707 16.34355821 17.4375 16.375 C16.45265625 16.39175781 15.4678125 16.40851563 14.453125 16.42578125 C13.51210938 16.43222656 12.57109375 16.43867188 11.6015625 16.4453125 C10.73225098 16.45578613 9.86293945 16.46625977 8.96728516 16.47705078 C6.8125 16.25 6.8125 16.25 4.8125 14.25 C2.12410615 13.98008094 -0.47891936 14.16262643 -3.1875 14.25 C-3.5175 14.91 -3.8475 15.57 -4.1875 16.25 C-2.28677734 16.41435547 -2.28677734 16.41435547 -0.34765625 16.58203125 C1.35161483 16.7416313 3.05083078 16.90181907 4.75 17.0625 C5.99620117 17.16788086 5.99620117 17.16788086 7.26757812 17.27539062 C13.9992797 17.93022541 20.68129047 19.05815333 26.3125 23 C28.46149126 26.2234869 28.8125 28.36901371 28.8125 32.25 C27.13914612 37.51614309 24.5698543 41.33071441 19.8125 44.25 C13.32339272 47.1962875 7.8946263 47.71183806 0.8125 47.625 C-0.13367188 47.63660156 -1.07984375 47.64820313 -2.0546875 47.66015625 C-10.96200927 47.62314522 -17.78254401 45.65495599 -24.1875 39.25 C-27.1875 34.15 -27.1875 34.15 -27.1875 31.25 C-19.9275 31.25 -12.6675 31.25 -5.1875 31.25 C-5.1875 31.91 -5.1875 32.57 -5.1875 33.25 C-1.8875 33.25 1.4125 33.25 4.8125 33.25 C5.3075 32.26 5.3075 32.26 5.8125 31.25 C3.91177734 31.08564453 3.91177734 31.08564453 1.97265625 30.91796875 C0.27338517 30.7583687 -1.42583078 30.59818093 -3.125 30.4375 C-3.95580078 30.36724609 -4.78660156 30.29699219 -5.64257812 30.22460938 C-12.50133694 29.55741494 -20.26701459 28.69871601 -25.3125 23.5625 C-27.40613671 19.86374182 -27.6688681 18.24914322 -26.8203125 14.19921875 C-24.88903927 8.25042034 -21.33415266 5.33655405 -16.1875 2.23046875 C-11.01552527 -0.30501105 -5.63716376 0.03133934 0 0 Z " fill="#000000" transform="translate(39.1875,419.75)"/>
<path d="M0 0 C17.49 0 34.98 0 53 0 C53 3.96 53 7.92 53 12 C42.11 12 31.22 12 20 12 C20 13.98 20 15.96 20 18 C29.24 18 38.48 18 48 18 C48 20.97 48 23.94 48 27 C38.76 27 29.52 27 20 27 C20 28.98 20 30.96 20 33 C31.55 33 43.1 33 55 33 C55 36.96 55 40.92 55 45 C36.85 45 18.7 45 0 45 C0 30.15 0 15.3 0 0 Z " fill="#000000" transform="translate(273,421)"/>
<path d="M0 0 C1.70736328 0.01353516 1.70736328 0.01353516 3.44921875 0.02734375 C6.21637881 0.0505972 8.9830676 0.08327132 11.75 0.125 C12.41 1.775 13.07 3.425 13.75 5.125 C13.09 5.125 12.43 5.125 11.75 5.125 C11.42 6.115 11.09 7.105 10.75 8.125 C10.09 8.455 9.43 8.785 8.75 9.125 C12.05 9.125 15.35 9.125 18.75 9.125 C18.75 11.435 18.75 13.745 18.75 16.125 C16.11 16.785 13.47 17.445 10.75 18.125 C11.03875 18.70507812 11.3275 19.28515625 11.625 19.8828125 C13.80480801 24.46949185 15.28310477 27.92722849 14.75 33.125 C10.34885603 32.62201212 8.03804981 31.03727269 4.75 28.125 C5.245 29.61 5.245 29.61 5.75 31.125 C4.76 31.785 3.77 32.445 2.75 33.125 C2.33333333 35.625 2.33333333 35.625 2.75 38.125 C3.41 38.785 4.07 39.445 4.75 40.125 C4.9453125 43.1640625 4.9453125 43.1640625 4.875 46.75 C4.85695313 47.93851562 4.83890625 49.12703125 4.8203125 50.3515625 C4.79710937 51.26679688 4.77390625 52.18203125 4.75 53.125 C3.76 53.455 2.77 53.785 1.75 54.125 C1.77320313 55.22457031 1.79640625 56.32414062 1.8203125 57.45703125 C1.94357078 65.96281585 1.63152183 73.77574688 -0.25 82.125 C3.05 82.125 6.35 82.125 9.75 82.125 C9.6571875 80.701875 9.6571875 80.701875 9.5625 79.25 C9.6553125 77.703125 9.6553125 77.703125 9.75 76.125 C12.75 74.125 12.75 74.125 16.75 74.125 C16.75 72.145 16.75 70.165 16.75 68.125 C17.08 69.115 17.41 70.105 17.75 71.125 C18.41 70.795 19.07 70.465 19.75 70.125 C19.75 69.135 19.75 68.145 19.75 67.125 C18.265 66.135 18.265 66.135 16.75 65.125 C18.07 65.125 19.39 65.125 20.75 65.125 C21.41 65.785 22.07 66.445 22.75 67.125 C22.375 69.75 22.375 69.75 21.75 72.125 C20.43 72.455 19.11 72.785 17.75 73.125 C17.42 75.765 17.09 78.405 16.75 81.125 C8.15490715 84.87558597 -0.05621145 84.40999689 -9.25 84.125 C-7.27 83.63 -7.27 83.63 -5.25 83.125 C-2.0916535 66.78787418 -2.0916535 66.78787418 -5.25 51.125 C-5.515625 48.43359375 -5.515625 48.43359375 -5.5 45.5625 C-5.50773437 44.13744141 -5.50773437 44.13744141 -5.515625 42.68359375 C-5.25 40.125 -5.25 40.125 -3.25 37.125 C-2.97643157 35.19362318 -2.97643157 35.19362318 -3.0546875 33.11328125 C-3.06435547 31.97729492 -3.06435547 31.97729492 -3.07421875 30.81835938 C-3.09097656 30.03267578 -3.10773438 29.24699219 -3.125 28.4375 C-3.13402344 27.64021484 -3.14304687 26.84292969 -3.15234375 26.02148438 C-3.17588415 24.055861 -3.21175453 22.09039225 -3.25 20.125 C-4.24 20.455 -5.23 20.785 -6.25 21.125 C-8.46485497 21.15276456 -10.68077312 21.11408504 -12.89453125 21.0390625 C-14.86969727 20.97332031 -14.86969727 20.97332031 -16.88476562 20.90625 C-17.57094971 20.88046875 -18.25713379 20.8546875 -18.96411133 20.828125 C-21.04425547 20.75067926 -23.12454513 20.68325965 -25.20507812 20.6171875 C-30.96372266 20.41743372 -36.57093681 20.1855251 -42.25 19.125 C-42.25 18.795 -42.25 18.465 -42.25 18.125 C-37.63 18.125 -33.01 18.125 -28.25 18.125 C-28.25 16.475 -28.25 14.825 -28.25 13.125 C-33.2 13.125 -38.15 13.125 -43.25 13.125 C-43.25 15.105 -43.25 17.085 -43.25 19.125 C-45.56 19.125 -47.87 19.125 -50.25 19.125 C-49.59 18.795 -48.93 18.465 -48.25 18.125 C-48.25 15.485 -48.25 12.845 -48.25 10.125 C-41.88235932 6.72892497 -34.08946671 7.68511227 -27.25 9.125 C-27.29125 8.34125 -27.3325 7.5575 -27.375 6.75 C-27.25 4.125 -27.25 4.125 -25.25 2.125 C-16.96572948 -0.08608589 -8.51109528 -0.13063074 0 0 Z " fill="#E3E3E6" transform="translate(311.25,233.875)"/>
<path d="M0 0 C0.73855062 5.41313271 1.20884135 10.74074004 1.38671875 16.19921875 C1.41224319 16.95612503 1.43776764 17.71303131 1.46406555 18.49287415 C1.5157166 20.08526883 1.565182 21.67773579 1.61254883 23.27026367 C1.6867848 25.66443424 1.7777905 28.05760172 1.86914062 30.45117188 C2.54249896 50.49896864 2.54249896 50.49896864 0 57 C-2.5324707 58.2097168 -2.5324707 58.2097168 -5 59 C-5.88693303 61.04105639 -5.88693303 61.04105639 -6 63 C-7.65 63 -9.3 63 -11 63 C-11 63.99 -11 64.98 -11 66 C-9.68 66.33 -8.36 66.66 -7 67 C-7.33 68.32 -7.66 69.64 -8 71 C-8.66 71 -9.32 71 -10 71 C-10.33 71.99 -10.66 72.98 -11 74 C-14.0625 75.1875 -14.0625 75.1875 -17 76 C-17.33 77.98 -17.66 79.96 -18 82 C-20.75078884 82.91692961 -22.35948913 83.10886083 -25.1875 83.0625 C-26.445625 83.041875 -27.70375 83.02125 -29 83 C-28.86722656 82.33097656 -28.73445313 81.66195312 -28.59765625 80.97265625 C-26.94763947 71.99993726 -26.40948559 63.09489048 -26 54 C-25.01 53.505 -25.01 53.505 -24 53 C-23.94613371 50.87527424 -23.90726929 48.75016348 -23.875 46.625 C-23.85179687 45.44164062 -23.82859375 44.25828125 -23.8046875 43.0390625 C-23.67133771 39.88846183 -23.67133771 39.88846183 -26 38 C-26.125 34.875 -26.125 34.875 -26 32 C-24.515 31.505 -24.515 31.505 -23 31 C-23.33 29.02 -23.66 27.04 -24 25 C-23.484375 25.763125 -22.96875 26.52625 -22.4375 27.3125 C-19.44152356 30.61575607 -17.14287486 31.48625726 -13 33 C-13.36928451 31.03648722 -13.77138641 29.0791246 -14.1875 27.125 C-14.40792969 26.03445313 -14.62835938 24.94390625 -14.85546875 23.8203125 C-15.73691574 20.78066053 -15.73691574 20.78066053 -18.61328125 19.6171875 C-19.40089844 19.41351563 -20.18851562 19.20984375 -21 19 C-17.17482487 16.60926555 -13.40334476 16.44033448 -9 16 C-9 13.69 -9 11.38 -9 9 C-12.3 9.33 -15.6 9.66 -19 10 C-19.33 9.34 -19.66 8.68 -20 8 C-19.01 7.67 -18.02 7.34 -17 7 C-16.67 4.69 -16.34 2.38 -16 0 C-20.95 0 -25.9 0 -31 0 C-31 -0.33 -31 -0.66 -31 -1 C-5.23188804 -2.79034029 -5.23188804 -2.79034029 0 0 Z " fill="#E0E0E3" transform="translate(339,234)"/>
<path d="M0 0 C6.28756367 0 11.50668086 0.02680052 17.5625 0.9375 C19.35880859 1.19853516 19.35880859 1.19853516 21.19140625 1.46484375 C24 2 24 2 25 3 C25.08855161 5.6662603 25.11524673 8.30647114 25.09765625 10.97265625 C25.0962413 11.77029892 25.09482635 12.56794159 25.09336853 13.38975525 C25.08775316 15.94737435 25.07519812 18.50490718 25.0625 21.0625 C25.05748698 22.79231645 25.05292373 24.52213426 25.04882812 26.25195312 C25.03777875 30.50133553 25.02050386 34.75065312 25 39 C25.99 38.505 25.99 38.505 27 38 C27.33 37.01 27.66 36.02 28 35 C28.66 35 29.32 35 30 35 C30 39.62 30 44.24 30 49 C27.525 49.495 27.525 49.495 25 50 C25 50.66 25 51.32 25 52 C23.33244907 51.91110482 21.66592395 51.80293767 20 51.6875 C19.071875 51.62949219 18.14375 51.57148438 17.1875 51.51171875 C14 51 14 51 6 48 C6.33 33.15 6.66 18.3 7 3 C6.01 3 5.02 3 4 3 C3.67 13.23 3.34 23.46 3 34 C2.01 33.67 1.02 33.34 0 33 C0 22.11 0 11.22 0 0 Z " fill="#9FA0A5" transform="translate(186,265)"/>
<path d="M0 0 C0 2.31 0 4.62 0 7 C-2.64 7.66 -5.28 8.32 -8 9 C-7.71125 9.58007812 -7.4225 10.16015625 -7.125 10.7578125 C-4.94519199 15.34449185 -3.46689523 18.80222849 -4 24 C-8.40114397 23.49701212 -10.71195019 21.91227269 -14 19 C-13.67 19.99 -13.34 20.98 -13 22 C-13.99 22.66 -14.98 23.32 -16 24 C-16.41666667 26.5 -16.41666667 26.5 -16 29 C-15.34 29.66 -14.68 30.32 -14 31 C-13.8046875 34.0390625 -13.8046875 34.0390625 -13.875 37.625 C-13.89304687 38.81351562 -13.91109375 40.00203125 -13.9296875 41.2265625 C-13.96449219 42.59941406 -13.96449219 42.59941406 -14 44 C-15.485 44.495 -15.485 44.495 -17 45 C-16.97679687 46.09957031 -16.95359375 47.19914062 -16.9296875 48.33203125 C-16.80642922 56.83781585 -17.11847817 64.65074688 -19 73 C-15.7 73 -12.4 73 -9 73 C-9.0928125 71.576875 -9.0928125 71.576875 -9.1875 70.125 C-9.0946875 68.578125 -9.0946875 68.578125 -9 67 C-6 65 -6 65 -2 65 C-2 63.02 -2 61.04 -2 59 C-1.67 59.99 -1.34 60.98 -1 62 C-0.01 61.505 -0.01 61.505 1 61 C1 60.01 1 59.02 1 58 C0.01 57.34 -0.98 56.68 -2 56 C-0.68 56 0.64 56 2 56 C2.66 56.66 3.32 57.32 4 58 C3.625 60.625 3.625 60.625 3 63 C1.02 63.495 1.02 63.495 -1 64 C-1.33 66.64 -1.66 69.28 -2 72 C-10.59509285 75.75058597 -18.80621145 75.28499689 -28 75 C-26.02 74.505 -26.02 74.505 -24 74 C-20.8416535 57.66287418 -20.8416535 57.66287418 -24 42 C-24.265625 39.30859375 -24.265625 39.30859375 -24.25 36.4375 C-24.25515625 35.48746094 -24.2603125 34.53742188 -24.265625 33.55859375 C-24 31 -24 31 -22 28 C-21.72643157 26.06862318 -21.72643157 26.06862318 -21.8046875 23.98828125 C-21.81113281 23.23095703 -21.81757813 22.47363281 -21.82421875 21.69335938 C-21.84097656 20.90767578 -21.85773438 20.12199219 -21.875 19.3125 C-21.88402344 18.51521484 -21.89304687 17.71792969 -21.90234375 16.89648438 C-21.92588415 14.930861 -21.96175453 12.96539225 -22 11 C-23.65 11 -25.3 11 -27 11 C-27 10.34 -27 9.68 -27 9 C-22.28400182 8.07529447 -19.32734391 7.77076223 -15 10 C-15.33 7.69 -15.66 5.38 -16 3 C-14.08487728 2.49411853 -12.16783078 1.99551609 -10.25 1.5 C-8.64898437 1.08234375 -8.64898437 1.08234375 -7.015625 0.65625 C-4 0 -4 0 0 0 Z " fill="#7F7F84" transform="translate(330,243)"/>
<path d="M0 0 C0.99 0 1.98 0 3 0 C3.02467081 6.08723655 3.04284604 12.17444417 3.05493164 18.26171875 C3.05996852 20.33366401 3.06679825 22.4056057 3.07543945 24.47753906 C3.08753321 27.45118082 3.09323467 30.42477569 3.09765625 33.3984375 C3.10281754 34.32868744 3.10797882 35.25893738 3.11329651 36.21737671 C3.11337204 37.07811798 3.11344757 37.93885925 3.11352539 38.82568359 C3.115746 39.58513275 3.11796661 40.34458191 3.12025452 41.12704468 C3 43 3 43 2 45 C0.02 44.34 -1.96 43.68 -4 43 C-4 42.34 -4 41.68 -4 41 C-5.03125 40.9175 -6.0625 40.835 -7.125 40.75 C-24.15124667 38.61025625 -24.15124667 38.61025625 -29 33 C-31.10332891 32.28552357 -31.10332891 32.28552357 -33 32 C-33 31.34 -33 30.68 -33 30 C-31.35 29.34 -29.7 28.68 -28 28 C-28.66 27.34 -29.32 26.68 -30 26 C-28.3970947 25.18501438 -26.79262722 24.37310073 -25.1875 23.5625 C-23.84751953 22.88380859 -23.84751953 22.88380859 -22.48046875 22.19140625 C-19.02383498 20.53113334 -16.35873779 19.8621965 -12.5625 19.875 C-11.80066406 19.87242187 -11.03882813 19.86984375 -10.25390625 19.8671875 C-8.04684141 19.99723985 -6.12030724 20.39143801 -4 21 C-3.95101562 21.63808594 -3.90203125 22.27617187 -3.8515625 22.93359375 C-3.77679688 23.75988281 -3.70203125 24.58617187 -3.625 25.4375 C-3.55539063 26.26121094 -3.48578125 27.08492188 -3.4140625 27.93359375 C-3.27742188 28.61550781 -3.14078125 29.29742187 -3 30 C-2.34 30.33 -1.68 30.66 -1 31 C-1.00785522 29.75126099 -1.00785522 29.75126099 -1.01586914 28.47729492 C-1.03292225 25.38550065 -1.04545565 22.29373036 -1.05493164 19.2019043 C-1.06242729 17.20685232 -1.07513345 15.21182214 -1.08789062 13.21679688 C-1.09272461 11.33637695 -1.09272461 11.33637695 -1.09765625 9.41796875 C-1.10551147 7.68196411 -1.10551147 7.68196411 -1.11352539 5.91088867 C-1 3 -1 3 0 0 Z " fill="#45444A" transform="translate(190,268)"/>
<path d="M0 0 C1.65 0 3.3 0 5 0 C4.91308261 2.77236494 4.80622639 5.54147078 4.6875 8.3125 C4.66494141 9.09818359 4.64238281 9.88386719 4.61914062 10.69335938 C4.58369141 11.45068359 4.54824219 12.20800781 4.51171875 12.98828125 C4.48553467 13.68477783 4.45935059 14.38127441 4.43237305 15.09887695 C3.8857726 17.50225227 2.7460085 18.3182336 1 20 C0.63680691 22.97192762 0.63680691 22.97192762 0.8125 26.1875 C0.83957031 27.27417969 0.86664063 28.36085938 0.89453125 29.48046875 C0.92933594 30.31191406 0.96414062 31.14335937 1 32 C1.66 32 2.32 32 3 32 C3.33977725 35.33270874 3.67063063 38.66624786 4 42 C4.09539062 42.93457031 4.19078125 43.86914062 4.2890625 44.83203125 C4.81980465 50.25318323 5.1027694 55.55322171 5 61 C2.69 60.67 0.38 60.34 -2 60 C-2.61565765 57.09761392 -3.01853542 54.48100838 -3.125 51.5 C-4.22046366 47.11814537 -5.8070788 46.16096276 -9.50390625 43.84765625 C-9.99761719 43.56792969 -10.49132812 43.28820312 -11 43 C-10.7525 41.453125 -10.7525 41.453125 -10.5 39.875 C-10.06678152 36.51755674 -9.91764297 33.37663843 -10 30 C-10.66 30 -11.32 30 -12 30 C-12.33 25.38 -12.66 20.76 -13 16 C-12.34 16 -11.68 16 -11 16 C-11 14.35 -11 12.7 -11 11 C-9.741875 10.67 -8.48375 10.34 -7.1875 10 C-4.49584383 9.02338139 -3.29976478 8.49505128 -1.80078125 6.01953125 C-0.87522247 3.57347894 -0.87522247 3.57347894 0 0 Z " fill="#E2E2E4" transform="translate(250,255)"/>
<path d="M0 0 C2.75031587 0.14111883 5.50015418 0.28771165 8.25 0.4375 C9.41595703 0.49647461 9.41595703 0.49647461 10.60546875 0.55664062 C11.73662109 0.61948242 11.73662109 0.61948242 12.890625 0.68359375 C13.92751465 0.73858032 13.92751465 0.73858032 14.98535156 0.79467773 C17.10833616 1.01104105 18.98359411 1.29077575 21 2 C21.70211894 3.65204456 22.36971413 5.31923769 23 7 C23.99 7.33 24.98 7.66 26 8 C25.95875 8.70125 25.9175 9.4025 25.875 10.125 C25.85886595 13.01244853 25.85886595 13.01244853 26.9375 15.625 C29.07008748 22.39910139 30.03917285 29.38532967 27 36 C26.01 36 25.02 36 24 36 C24.33 39.96 24.66 43.92 25 48 C25.99 48.33 26.98 48.66 28 49 C27.74438677 51.3431213 27.40729228 53.67843403 27 56 C26.01 56.495 26.01 56.495 25 57 C24.67 55.68 24.34 54.36 24 53 C22.02 53.495 22.02 53.495 20 54 C19.67 55.65 19.34 57.3 19 59 C17.35 58.67 15.7 58.34 14 58 C14 57.34 14 56.68 14 56 C5.33644448 54.77495073 5.33644448 54.77495073 -3 57 C-3 56.34 -3 55.68 -3 55 C-3.99 55 -4.98 55 -6 55 C-6.33 53.35 -6.66 51.7 -7 50 C-1.44407753 49.62960517 3.06861726 50.70925876 8.3984375 52.265625 C11.24352987 53.06874417 14.07106937 53.60419856 17 54 C17 53.34 17 52.68 17 52 C18.98 51.505 18.98 51.505 21 51 C21.33 46.38 21.66 41.76 22 37 C21.34 37 20.68 37 20 37 C19.67 38.32 19.34 39.64 19 41 C18.34 41 17.68 41 17 41 C16.67 29.12 16.34 17.24 16 5 C10.39 4.01 4.78 3.02 -1 2 C-0.67 1.34 -0.34 0.68 0 0 Z " fill="#212123" transform="translate(194,263)"/>
<path d="M0 0 C3.56255095 -0.02701176 7.12489629 -0.04684512 10.6875 -0.0625 C12.19860352 -0.07506836 12.19860352 -0.07506836 13.74023438 -0.08789062 C14.71669922 -0.09111328 15.69316406 -0.09433594 16.69921875 -0.09765625 C17.59471436 -0.10289307 18.49020996 -0.10812988 19.4128418 -0.11352539 C22.03641759 0.00159802 24.44293053 0.41765715 27 1 C27 2.32 27 3.64 27 5 C26.01 5 25.02 5 24 5 C24 4.34 24 3.68 24 3 C17.4 3 10.8 3 4 3 C4 5.97 4 8.94 4 12 C4.66 12.33 5.32 12.66 6 13 C6 13.66 6 14.32 6 15 C5.360625 14.814375 4.72125 14.62875 4.0625 14.4375 C3.0415625 14.2209375 3.0415625 14.2209375 2 14 C1.67 14.33 1.34 14.66 1 15 C-0.66617115 15.04063832 -2.33388095 15.042721 -4 15 C-4 15.66 -4 16.32 -4 17 C-2.94941406 17.06058594 -1.89882812 17.12117188 -0.81640625 17.18359375 C2.7956741 17.39609437 6.40636875 17.62585369 10.01660156 17.86767578 C11.66441124 17.97761089 13.31263023 18.08139 14.9609375 18.18359375 C19.11955087 18.52208554 21.2557138 18.84195989 24 22 C24.33 21.34 24.66 20.68 25 20 C25.99 20 26.98 20 28 20 C28.90901939 23.04842865 29.06173367 25.59661636 28.87890625 28.765625 C28.83056641 29.65507812 28.78222656 30.54453125 28.73242188 31.4609375 C28.67634766 32.38132812 28.62027344 33.30171875 28.5625 34.25 C28.51029297 35.18585938 28.45808594 36.12171875 28.40429688 37.0859375 C28.27493175 39.39098887 28.13997966 41.69557289 28 44 C27.67 44 27.34 44 27 44 C26.86722656 43.26394531 26.73445313 42.52789062 26.59765625 41.76953125 C26.33275391 40.30580078 26.33275391 40.30580078 26.0625 38.8125 C25.80146484 37.36810547 25.80146484 37.36810547 25.53515625 35.89453125 C25.35855469 34.93933594 25.18195313 33.98414063 25 33 C24.87496094 32.09636719 24.74992187 31.19273437 24.62109375 30.26171875 C24.16612535 27.63736394 24.16612535 27.63736394 21 26 C20.3125 23.375 20.3125 23.375 20 21 C16.52125243 20.80409556 13.04199096 20.61968408 9.5625 20.4375 C8.56927734 20.38142578 7.57605469 20.32535156 6.55273438 20.26757812 C5.13637695 20.19506836 5.13637695 20.19506836 3.69140625 20.12109375 C2.81685791 20.0739624 1.94230957 20.02683105 1.04125977 19.97827148 C-0.99511051 19.76193043 -0.99511051 19.76193043 -2 21 C-3.68608966 21.07205511 -5.37500659 21.08386068 -7.0625 21.0625 C-7.98160156 21.05347656 -8.90070313 21.04445313 -9.84765625 21.03515625 C-10.55792969 21.02355469 -11.26820313 21.01195312 -12 21 C-10.68 20.67 -9.36 20.34 -8 20 C-8 19.34 -8 18.68 -8 18 C-7.34 18 -6.68 18 -6 18 C-6 17.01 -6 16.02 -6 15 C-6.88751953 15.30744141 -6.88751953 15.30744141 -7.79296875 15.62109375 C-11.84952619 17.00416146 -15.77528021 18.24171696 -20 19 C-21.3782983 19.27565966 -22.75317088 19.56876591 -24.125 19.875 C-24.78757813 20.01679688 -25.45015625 20.15859375 -26.1328125 20.3046875 C-28.47491014 21.17684938 -29.45528583 22.02800729 -31 24 C-31.41328556 26.51361861 -31.41328556 26.51361861 -31.29296875 29.32421875 C-31.2784668 30.86625977 -31.2784668 30.86625977 -31.26367188 32.43945312 C-31.23853516 33.51130859 -31.21339844 34.58316406 -31.1875 35.6875 C-31.17396484 36.77095703 -31.16042969 37.85441406 -31.14648438 38.97070312 C-31.11110643 41.64763405 -31.06174189 44.32356838 -31 47 C-34.12706959 48.5635348 -37.57982443 48.39958487 -41 48 C-41.99 47.34 -42.98 46.68 -44 46 C-38.25 42 -38.25 42 -36 42 C-36.0314209 41.07719238 -36.0314209 41.07719238 -36.06347656 40.13574219 C-36.14677017 37.34066191 -36.19870013 34.54584285 -36.25 31.75 C-36.28351563 30.78191406 -36.31703125 29.81382812 -36.3515625 28.81640625 C-36.4487203 21.77246546 -36.4487203 21.77246546 -34.52734375 18.46484375 C-30.92850086 16.37896108 -27.3710516 15.60286707 -23.3125 14.8125 C-22.16491211 14.5659668 -22.16491211 14.5659668 -20.99414062 14.31445312 C-13.99769707 12.85857987 -7.14997754 12 0 12 C0 8.04 0 4.08 0 0 Z " fill="#323234" transform="translate(195,244)"/>
<path d="M0 0 C0 0.99 0 1.98 0 3 C-0.66 3 -1.32 3 -2 3 C-3.0394775 6.1184325 -3.11494838 8.27475586 -3.09765625 11.54296875 C-3.09282227 13.15268555 -3.09282227 13.15268555 -3.08789062 14.79492188 C-3.07951172 15.91447266 -3.07113281 17.03402344 -3.0625 18.1875 C-3.05798828 19.31865234 -3.05347656 20.44980469 -3.04882812 21.61523438 C-3.03703498 24.41020927 -3.0205765 27.2050782 -3 30 C-4.05316406 29.84660156 -5.10632813 29.69320313 -6.19140625 29.53515625 C-9.10607115 29.12560846 -12.01184238 28.75257082 -14.9375 28.4375 C-16.278125 28.293125 -17.61875 28.14875 -19 28 C-19.33 23.71 -19.66 19.42 -20 15 C-23.0109362 17.0072908 -23.63016497 17.83884224 -25 21 C-25.27672202 19.08700862 -25.52042815 17.16922064 -25.75 15.25 C-25.88921875 14.18265625 -26.0284375 13.1153125 -26.171875 12.015625 C-26 9 -26 9 -24.34765625 6.7109375 C-21.76337535 4.82755142 -19.78989772 4.10342719 -16.6875 3.375 C-15.72070312 3.13910156 -14.75390625 2.90320313 -13.7578125 2.66015625 C-12.84773437 2.44230469 -11.93765625 2.22445313 -11 2 C-9.68508387 1.61226832 -8.37209218 1.21784996 -7.0625 0.8125 C-4 0 -4 0 0 0 Z " fill="#0C0C0C" transform="translate(189,259)"/>
<path d="M0 0 C3.3 0.33 6.6 0.66 10 1 C9.34 1.66 8.68 2.32 8 3 C7.67022394 5.01833943 7.67022394 5.01833943 7.68115234 7.35791016 C7.66128265 8.25869293 7.64141296 9.15947571 7.62094116 10.08755493 C7.60361435 11.54855118 7.60361435 11.54855118 7.5859375 13.0390625 C7.56657135 14.03505463 7.5472052 15.03104675 7.5272522 16.05722046 C7.46735035 19.2463925 7.42102862 22.43560043 7.375 25.625 C7.33682999 27.78387013 7.29777884 29.94272488 7.2578125 32.1015625 C7.1616403 37.40090534 7.07662411 42.70034043 7 48 C6.34 48 5.68 48 5 48 C4.505 27.21 4.505 27.21 4 6 C1.86913558 8.13086442 2.74039128 12.89166935 2.68359375 15.84765625 C2.66281265 16.7340831 2.64203156 17.62050995 2.62062073 18.53379822 C2.555026 21.376617 2.49619448 24.21953117 2.4375 27.0625 C2.3943242 28.98503606 2.35071022 30.90756234 2.30664062 32.83007812 C2.19933457 37.55328668 2.09809549 42.27659153 2 47 C-3.875 46.125 -3.875 46.125 -5 45 C-5.09268999 43.64905018 -5.11747326 42.29332909 -5.11352539 40.93920898 C-5.11344986 40.07839218 -5.11337433 39.21757538 -5.11329651 38.33067322 C-5.10813522 37.39526199 -5.10297394 36.45985077 -5.09765625 35.49609375 C-5.0962413 34.54307877 -5.09482635 33.59006378 -5.09336853 32.60816956 C-5.08775152 29.55124835 -5.07519616 26.49439923 -5.0625 23.4375 C-5.05748719 21.37044376 -5.05292391 19.30338638 -5.04882812 17.23632812 C-5.03777656 12.15752412 -5.02050055 7.0787743 -5 2 C-3.35 1.67 -1.7 1.34 0 1 C0 0.67 0 0.34 0 0 Z " fill="#58595E" transform="translate(200,266)"/>
<path d="M0 0 C-0.99 0.495 -0.99 0.495 -2 1 C-1.8246875 1.51175781 -1.649375 2.02351562 -1.46875 2.55078125 C-0.83549151 5.85955687 -1.19455335 8.83799981 -1.5 12.1875 C-1.70551287 14.45514774 -1.88233382 16.72610104 -2 19 C-1.67 19.33 -1.34 19.66 -1 20 C-0.92728259 22.35313555 -0.91629132 24.70833668 -0.9375 27.0625 C-0.94652344 28.35285156 -0.95554687 29.64320313 -0.96484375 30.97265625 C-0.97644531 31.97167969 -0.98804688 32.97070312 -1 34 C-3.97 34 -6.94 34 -10 34 C-11.23184766 31.53630468 -11.16732342 29.8105499 -11.1875 27.0625 C-11.20167969 26.18722656 -11.21585938 25.31195313 -11.23046875 24.41015625 C-11 22 -11 22 -9 19 C-8.34 19 -7.68 19 -7 19 C-7.01160156 18.443125 -7.02320313 17.88625 -7.03515625 17.3125 C-7.09676433 12.10221657 -6.74999344 7.1562049 -6 2 C-7.65 2 -9.3 2 -11 2 C-11.1546875 3.6396875 -11.1546875 3.6396875 -11.3125 5.3125 C-12 9 -12 9 -13.125 10.875 C-15.94403684 12.56642211 -18.76977183 12.69526149 -22 13 C-22 14.65 -22 16.3 -22 18 C-22.33 18 -22.66 18 -23 18 C-23.46295461 9.16956953 -23.46295461 9.16956953 -21.8125 5 C-16.54787108 -0.80924571 -7.30977122 -0.1522869 0 0 Z " fill="#454449" transform="translate(261,253)"/>
<path d="M0 0 C0.99 0 1.98 0 3 0 C3 11.88 3 23.76 3 36 C3.99 35.505 3.99 35.505 5 35 C5.33 34.01 5.66 33.02 6 32 C6.66 32 7.32 32 8 32 C8 36.62 8 41.24 8 46 C5.525 46.495 5.525 46.495 3 47 C3 47.66 3 48.32 3 49 C1.22844346 48.88570603 -0.54226229 48.75816963 -2.3125 48.625 C-3.29863281 48.55539062 -4.28476563 48.48578125 -5.30078125 48.4140625 C-8 48 -8 48 -11 46 C-3.25 44.875 -3.25 44.875 -1 46 C-1.00222061 45.43845718 -1.00444122 44.87691437 -1.00672913 44.2983551 C-1.02878306 38.47519565 -1.04390705 32.65204799 -1.05493164 26.82885742 C-1.05997308 24.65307127 -1.06680607 22.47728853 -1.07543945 20.30151367 C-1.08751338 17.18146933 -1.09323005 14.06146962 -1.09765625 10.94140625 C-1.10281754 9.96224747 -1.10797882 8.98308868 -1.11329651 7.97425842 C-1.11340981 6.62297096 -1.11340981 6.62297096 -1.11352539 5.24438477 C-1.115746 4.44718521 -1.11796661 3.64998566 -1.12025452 2.82862854 C-1 1 -1 1 0 0 Z " fill="#87878D" transform="translate(208,268)"/>
<path d="M0 0 C0.33 1.32 0.66 2.64 1 4 C0.34 4 -0.32 4 -1 4 C-0.88608368 6.60508636 -0.75934452 9.20845546 -0.625 11.8125 C-0.5940625 12.55048828 -0.563125 13.28847656 -0.53125 14.04882812 C-0.32653852 17.81893115 -0.13566173 19.79650741 2 23 C-4.57039711 23.12635379 -4.57039711 23.12635379 -7.125 22.375 C-9.81391484 21.83721703 -11.48700633 22.9828359 -14 24 C-17.3125 24.125 -17.3125 24.125 -20 24 C-19.83371094 23.17886719 -19.66742188 22.35773438 -19.49609375 21.51171875 C-18.84114736 16.87552342 -18.98742434 12.32184721 -19.12695312 7.65820312 C-19.18770716 3.85928923 -19.16499052 2.24748578 -17 -1 C-11.05471911 -2.61946408 -5.69801079 -2.10578659 0 0 Z M-8 1 C-11.85761478 5.4936669 -15.48124399 10.59614965 -15.4375 16.6875 C-15.293125 17.780625 -15.14875 18.87375 -15 20 C-11.04 19.67 -7.08 19.34 -3 19 C-2.945862 16.75026553 -2.90714509 14.50015617 -2.875 12.25 C-2.85179687 10.99703125 -2.82859375 9.7440625 -2.8046875 8.453125 C-2.98462698 5.27179508 -3.31001418 3.63478104 -5 1 C-5.99 1 -6.98 1 -8 1 Z " fill="#4A4A4B" transform="translate(322,210)"/>
<path d="M0 0 C7.64933119 1.47010584 15.16537036 3.20116232 22.625 5.4375 C23.29917969 5.63045654 23.97335938 5.82341309 24.66796875 6.0222168 C28.70744466 7.27333225 31.51051434 8.51851118 34 12 C34.25 14.75 34.25 14.75 34 17 C28.41987452 16.14229536 23.23138027 15.32710998 18.1015625 12.86328125 C12.93778058 10.74209946 7.37744837 9.46928894 2 8 C1.34 5.36 0.68 2.72 0 0 Z " fill="#46464C" transform="translate(155,303)"/>
<path d="M0 0 C0 2.31 0 4.62 0 7 C-2.64 7.66 -5.28 8.32 -8 9 C-7.71125 9.58007812 -7.4225 10.16015625 -7.125 10.7578125 C-4.94519199 15.34449185 -3.46689523 18.80222849 -4 24 C-8.83407252 23.58565093 -10.89537674 21.62206046 -14 18 C-15 15 -15 15 -14 11 C-18.29 11 -22.58 11 -27 11 C-27 10.34 -27 9.68 -27 9 C-22.28400182 8.07529447 -19.32734391 7.77076223 -15 10 C-15.33 7.69 -15.66 5.38 -16 3 C-14.08487728 2.49411853 -12.16783078 1.99551609 -10.25 1.5 C-8.64898437 1.08234375 -8.64898437 1.08234375 -7.015625 0.65625 C-4 0 -4 0 0 0 Z " fill="#656469" transform="translate(330,243)"/>
<path d="M0 0 C1.4221582 0.13051758 1.4221582 0.13051758 2.87304688 0.26367188 C9.80998884 0.93498884 9.80998884 0.93498884 10.9375 2.0625 C11.07865161 4.73308851 10.97997107 7.38682238 10.9375 10.0625 C9.6175 10.0625 8.2975 10.0625 6.9375 10.0625 C6.9375 8.4125 6.9375 6.7625 6.9375 5.0625 C5.6175 5.0625 4.2975 5.0625 2.9375 5.0625 C2.9375 6.7125 2.9375 8.3625 2.9375 10.0625 C2.2775 9.7325 1.6175 9.4025 0.9375 9.0625 C0.9375 7.7425 0.9375 6.4225 0.9375 5.0625 C0.2775 5.0625 -0.3825 5.0625 -1.0625 5.0625 C-1.0625 6.7125 -1.0625 8.3625 -1.0625 10.0625 C-1.3925 10.0625 -1.7225 10.0625 -2.0625 10.0625 C-2.0625 8.0825 -2.0625 6.1025 -2.0625 4.0625 C-2.7225 4.0625 -3.3825 4.0625 -4.0625 4.0625 C-4.0625 6.0425 -4.0625 8.0225 -4.0625 10.0625 C-5.0525 9.7325 -6.0425 9.4025 -7.0625 9.0625 C-6.7325 7.4125 -6.4025 5.7625 -6.0625 4.0625 C-11.0125 4.0625 -15.9625 4.0625 -21.0625 4.0625 C-21.0625 6.0425 -21.0625 8.0225 -21.0625 10.0625 C-23.3725 10.0625 -25.6825 10.0625 -28.0625 10.0625 C-27.4025 9.7325 -26.7425 9.4025 -26.0625 9.0625 C-26.0625 6.4225 -26.0625 3.7825 -26.0625 1.0625 C-18.44077983 -3.00241742 -8.25844965 -0.82176528 0 0 Z " fill="#0F0F12" transform="translate(289.0625,242.9375)"/>
<path d="M0 0 C7.92 0 15.84 0 24 0 C20.5647952 2.29013653 19.014669 2.17842973 15 2 C15.495 5.465 15.495 5.465 16 9 C15.38511719 8.9278125 14.77023437 8.855625 14.13671875 8.78125 C13.32847656 8.6884375 12.52023437 8.595625 11.6875 8.5 C10.88699219 8.4071875 10.08648437 8.314375 9.26171875 8.21875 C6.88103445 7.95186537 6.88103445 7.95186537 4 8 C4.99 8.66 5.98 9.32 7 10 C6 11 6 11 3.2277832 11.03759766 C2.01437256 10.99683105 0.80096191 10.95606445 -0.44921875 10.9140625 C-1.09945511 10.89282318 -1.74969147 10.87158386 -2.41963196 10.84970093 C-3.80091814 10.80333801 -5.18211993 10.75440195 -6.56323242 10.703125 C-8.66112442 10.62597002 -10.75916025 10.55843018 -12.85742188 10.4921875 C-14.20054098 10.44589344 -15.54364081 10.39903582 -16.88671875 10.3515625 C-18.10576904 10.30854004 -19.32481934 10.26551758 -20.58081055 10.22119141 C-23.783614 10.01399827 -26.84754418 9.58971133 -30 9 C-30 8.67 -30 8.34 -30 8 C-27.89590361 7.97298592 -25.79170822 7.95359777 -23.6875 7.9375 C-22.51574219 7.92589844 -21.34398437 7.91429687 -20.13671875 7.90234375 C-17 8 -17 8 -14 9 C-14 7.02 -14 5.04 -14 3 C-11.525 3.495 -11.525 3.495 -9 4 C-8.67 5.32 -8.34 6.64 -8 8 C-7.67 6.68 -7.34 5.36 -7 4 C-5.68 4 -4.36 4 -3 4 C-3 5.65 -3 7.3 -3 9 C-1.68 9 -0.36 9 1 9 C0.67 6.03 0.34 3.06 0 0 Z " fill="#D5D4D9" transform="translate(299,244)"/>
<path d="M0 0 C0.99 0 1.98 0 3 0 C3.02467081 6.08723655 3.04284604 12.17444417 3.05493164 18.26171875 C3.05996852 20.33366401 3.06679825 22.4056057 3.07543945 24.47753906 C3.08753321 27.45118082 3.09323467 30.42477569 3.09765625 33.3984375 C3.10281754 34.32868744 3.10797882 35.25893738 3.11329651 36.21737671 C3.11337204 37.07811798 3.11344757 37.93885925 3.11352539 38.82568359 C3.115746 39.58513275 3.11796661 40.34458191 3.12025452 41.12704468 C3 43 3 43 2 45 C0.02 44.34 -1.96 43.68 -4 43 C-4 38.71 -4 34.42 -4 30 C-3.01 30.33 -2.02 30.66 -1 31 C-1.00523682 30.16750732 -1.01047363 29.33501465 -1.01586914 28.47729492 C-1.03292225 25.38550065 -1.04545565 22.29373036 -1.05493164 19.2019043 C-1.06242729 17.20685232 -1.07513345 15.21182214 -1.08789062 13.21679688 C-1.09111328 11.96318359 -1.09433594 10.70957031 -1.09765625 9.41796875 C-1.10289307 8.26063232 -1.10812988 7.1032959 -1.11352539 5.91088867 C-1 3 -1 3 0 0 Z " fill="#65656A" transform="translate(190,268)"/>
<path d="M0 0 C3.91715871 0.85191938 6.1550874 2.07819787 9 5 C9.88049237 8.79289019 10 12.10699979 10 16 C12.64 16.66 15.28 17.32 18 18 C16.02 18.99 16.02 18.99 14 20 C14 19.34 14 18.68 14 18 C12.9275 18.226875 11.855 18.45375 10.75 18.6875 C7 19 7 19 4.75 17.6875 C4.1725 17.130625 3.595 16.57375 3 16 C2.01 15.34 1.02 14.68 0 14 C-0.29296875 10.7421875 -0.29296875 10.7421875 -0.1875 6.875 C-0.16042969 5.59367187 -0.13335937 4.31234375 -0.10546875 2.9921875 C-0.07066406 2.00476563 -0.03585938 1.01734375 0 0 Z " fill="#89888D" transform="translate(238,298)"/>
<path d="M0 0 C-0.99 0.495 -0.99 0.495 -2 1 C-1.814375 1.53625 -1.62875 2.0725 -1.4375 2.625 C-0.88580676 5.61990614 -1.39402556 8.03745829 -2 11 C-2.33 11 -2.66 11 -3 11 C-3.144375 10.071875 -3.28875 9.14375 -3.4375 8.1875 C-3.92100111 4.99274889 -3.92100111 4.99274889 -5 2 C-6.98 2 -8.96 2 -11 2 C-11.1546875 3.6396875 -11.1546875 3.6396875 -11.3125 5.3125 C-12 9 -12 9 -13.125 10.875 C-15.94403684 12.56642211 -18.76977183 12.69526149 -22 13 C-22 14.65 -22 16.3 -22 18 C-22.33 18 -22.66 18 -23 18 C-23.46295461 9.16956953 -23.46295461 9.16956953 -21.8125 5 C-16.54787108 -0.80924571 -7.30977122 -0.1522869 0 0 Z " fill="#8F8E92" transform="translate(261,253)"/>
<path d="M0 0 C-0.25561323 2.3431213 -0.59270772 4.67843403 -1 7 C-1.66 7.33 -2.32 7.66 -3 8 C-3.33 6.68 -3.66 5.36 -4 4 C-5.32 4.33 -6.64 4.66 -8 5 C-8.33 6.65 -8.66 8.3 -9 10 C-11.475 9.505 -11.475 9.505 -14 9 C-14 8.34 -14 7.68 -14 7 C-22.66355552 5.77495073 -22.66355552 5.77495073 -31 8 C-31 7.34 -31 6.68 -31 6 C-31.99 6 -32.98 6 -34 6 C-34.33 4.35 -34.66 2.7 -35 1 C-29.44407753 0.62960517 -24.93138274 1.70925876 -19.6015625 3.265625 C-16.75647013 4.06874417 -13.92893063 4.60419856 -11 5 C-11 4.34 -11 3.68 -11 3 C-4.5 0 -4.5 0 0 0 Z " fill="#19191D" transform="translate(222,312)"/>
<path d="M0 0 C1.2065625 0.0309375 1.2065625 0.0309375 2.4375 0.0625 C2.1075 0.7225 1.7775 1.3825 1.4375 2.0625 C0.7775 2.0625 0.1175 2.0625 -0.5625 2.0625 C-0.5625 2.7225 -0.5625 3.3825 -0.5625 4.0625 C0.22125 4.000625 1.005 3.93875 1.8125 3.875 C3.111875 3.9678125 3.111875 3.9678125 4.4375 4.0625 C5.4275 5.5475 5.4275 5.5475 6.4375 7.0625 C9.218666 8.06802083 11.90513984 8.91746266 14.75 9.6875 C15.88985352 10.01234375 15.88985352 10.01234375 17.05273438 10.34375 C20.17145637 11.22165263 23.22442144 12.0250786 26.41796875 12.5859375 C27.08441406 12.74320312 27.75085938 12.90046875 28.4375 13.0625 C28.9325 14.0525 28.9325 14.0525 29.4375 15.0625 C30.4275 15.7225 31.4175 16.3825 32.4375 17.0625 C28.10603322 16.30992855 23.98832133 15.03192773 19.8125 13.6875 C13.39468189 11.64835195 6.95517661 9.76096234 0.4375 8.0625 C0.1075 8.7225 -0.2225 9.3825 -0.5625 10.0625 C-0.5625 9.0725 -0.5625 8.0825 -0.5625 7.0625 C-0.8925 8.7125 -1.2225 10.3625 -1.5625 12.0625 C-3.2125 11.7325 -4.8625 11.4025 -6.5625 11.0625 C-6.5625 9.7425 -6.5625 8.4225 -6.5625 7.0625 C-5.5725 7.0625 -4.5825 7.0625 -3.5625 7.0625 C-3.583125 6.093125 -3.60375 5.12375 -3.625 4.125 C-3.54257968 0.08640438 -3.54257968 0.08640438 0 0 Z " fill="#212026" transform="translate(157.5625,295.9375)"/>
<path d="M0 0 C0.99 0 1.98 0 3 0 C3.07413521 5.07198888 3.12859451 10.14366268 3.16479492 15.21606445 C3.17988516 16.94170627 3.20035975 18.66730972 3.22631836 20.39282227 C3.26269209 22.87265488 3.27972359 25.35198064 3.29296875 27.83203125 C3.30845261 28.60400345 3.32393646 29.37597565 3.33988953 30.17134094 C3.34158031 35.54769033 3.34158031 35.54769033 1.48168945 38.01049805 C0.99273193 38.33703369 0.50377441 38.66356934 0 39 C-0.16722525 33.60670134 -0.32782368 28.21326249 -0.48217773 22.81958008 C-0.53567534 20.9832625 -0.59101046 19.14699753 -0.64819336 17.31079102 C-0.72988864 14.67736153 -0.80505738 12.04381595 -0.87890625 9.41015625 C-0.90594131 8.58411392 -0.93297638 7.75807159 -0.96083069 6.90699768 C-1.01283011 4.9386419 -1.01187837 2.96900669 -1 1 C-0.67 0.67 -0.34 0.34 0 0 Z " fill="#A3A2A9" transform="translate(208,268)"/>
<path d="M0 0 C1.9375 0.6875 1.9375 0.6875 4 2 C4.875 4.5 4.875 4.5 5 7 C4.34 7.66 3.68 8.32 3 9 C2.01 9 1.02 9 0 9 C-0.33 11.64 -0.66 14.28 -1 17 C-9.59509285 20.75058597 -17.80621145 20.28499689 -27 20 C-26.360625 19.87625 -25.72125 19.7525 -25.0625 19.625 C-24.381875 19.41875 -23.70125 19.2125 -23 19 C-22.67 18.34 -22.34 17.68 -22 17 C-22 17.66 -22 18.32 -22 19 C-17.38 18.67 -12.76 18.34 -8 18 C-8 16.02 -8 14.04 -8 12 C-5 10 -5 10 -1 10 C-1 8.02 -1 6.04 -1 4 C-0.67 4.99 -0.34 5.98 0 7 C0.66 6.67 1.32 6.34 2 6 C2 5.01 2 4.02 2 3 C1.01 2.34 0.02 1.68 -1 1 C-0.67 0.67 -0.34 0.34 0 0 Z " fill="#55555B" transform="translate(329,298)"/>
<path d="M0 0 C2.475 0.495 2.475 0.495 5 1 C5.33 2.32 5.66 3.64 6 5 C6.33 3.68 6.66 2.36 7 1 C8.32 1 9.64 1 11 1 C11 2.65 11 4.3 11 6 C12.32 6 13.64 6 15 6 C15 4.02 15 2.04 15 0 C15.33 0 15.66 0 16 0 C16 1.65 16 3.3 16 5 C18.475 5.495 18.475 5.495 21 6 C20.67 6.66 20.34 7.32 20 8 C15.83723082 7.88111835 11.67466743 7.75683224 7.51220703 7.62768555 C6.09818835 7.58455749 4.68412498 7.54286832 3.27001953 7.50268555 C1.2293556 7.4444425 -0.81108795 7.38090859 -2.8515625 7.31640625 C-4.07697754 7.27974854 -5.30239258 7.24309082 -6.56494141 7.20532227 C-9.77784342 7.01327887 -12.83941587 6.5944606 -16 6 C-16 5.67 -16 5.34 -16 5 C-13.89590361 4.97298592 -11.79170822 4.95359777 -9.6875 4.9375 C-8.51574219 4.92589844 -7.34398437 4.91429687 -6.13671875 4.90234375 C-3 5 -3 5 0 6 C0 4.02 0 2.04 0 0 Z " fill="#A09FA3" transform="translate(285,247)"/>
<path d="M0 0 C0 0.99 0 1.98 0 3 C-0.66 3 -1.32 3 -2 3 C-2.33 5.64 -2.66 8.28 -3 11 C-3.66 11 -4.32 11 -5 11 C-5 10.34 -5 9.68 -5 9 C-5.66 9 -6.32 9 -7 9 C-7 8.34 -7 7.68 -7 7 C-14.74338636 6.61041465 -14.74338636 6.61041465 -22 9 C-22 8.34 -22 7.68 -22 7 C-22.66 6.67 -23.32 6.34 -24 6 C-21.24117232 4.50537552 -18.76056125 3.61133723 -15.6875 3 C-12.78679228 2.39886649 -10.03842985 1.71625799 -7.1875 0.875 C-4 0 -4 0 0 0 Z " fill="#151516" transform="translate(189,259)"/>
<path d="M0 0 C2.64 0 5.28 0 8 0 C7.47731534 2.76276177 6.89130413 5.3260876 6 8 C5.34 8 4.68 8 4 8 C4 11.3 4 14.6 4 18 C2.68 17.67 1.36 17.34 0 17 C0 11.39 0 5.78 0 0 Z " fill="#95949B" transform="translate(308,254)"/>
<path d="M0 0 C2.41929973 2.41929973 2.4518758 3.67759808 3 7 C3.28230469 8.25876953 3.28230469 8.25876953 3.5703125 9.54296875 C4.9196824 15.97623231 5.04127017 21.51316828 4 28 C2.68 28 1.36 28 0 28 C0 18.76 0 9.52 0 0 Z " fill="#0C0C0D" transform="translate(218,270)"/>
<path d="M0 0 C3.5624827 -0.02913821 7.12493454 -0.04684529 10.6875 -0.0625 C12.19860352 -0.07506836 12.19860352 -0.07506836 13.74023438 -0.08789062 C14.71669922 -0.09111328 15.69316406 -0.09433594 16.69921875 -0.09765625 C18.04246216 -0.10551147 18.04246216 -0.10551147 19.4128418 -0.11352539 C22.03641759 0.00159802 24.44293053 0.41765715 27 1 C27 2.32 27 3.64 27 5 C26.01 5 25.02 5 24 5 C24 4.34 24 3.68 24 3 C16.08 3.33 8.16 3.66 0 4 C0 2.68 0 1.36 0 0 Z " fill="#848389" transform="translate(195,244)"/>
<path d="M0 0 C2.97 0 5.94 0 9 0 C9 0.66 9 1.32 9 2 C9.99 2.33 10.98 2.66 12 3 C11.75 6.375 11.75 6.375 11 10 C8.953125 11.2265625 8.953125 11.2265625 7 12 C5.82767315 10.3790787 4.6622923 8.75313167 3.5 7.125 C2.8503125 6.22007812 2.200625 5.31515625 1.53125 4.3828125 C0 2 0 2 0 0 Z " fill="#1D1D20" transform="translate(210,247)"/>
<path d="M0 0 C-0.99 1.485 -0.99 1.485 -2 3 C-2 4.65 -2 6.3 -2 8 C-5.3 8 -8.6 8 -12 8 C-12.125 5.125 -12.125 5.125 -12 2 C-8.63758153 -1.36241847 -4.39594827 -1.5216744 0 0 Z " fill="#7C7C80" transform="translate(296,236)"/>
<path d="M0 0 C1.4540625 0.0309375 1.4540625 0.0309375 2.9375 0.0625 C4.6953125 6.01953125 4.6953125 6.01953125 4.9375 8.0625 C3.9475 9.5475 3.9475 9.5475 2.9375 11.0625 C0.07025314 10.48905063 -0.9239515 10.2010485 -3.0625 8.0625 C-5.13124034 7.4199765 -5.13124034 7.4199765 -7.0625 7.0625 C-7.0625 6.4025 -7.0625 5.7425 -7.0625 5.0625 C-5.4125 4.4025 -3.7625 3.7425 -2.0625 3.0625 C-2.7225 2.4025 -3.3825 1.7425 -4.0625 1.0625 C-3.0625 0.0625 -3.0625 0.0625 0 0 Z " fill="#444348" transform="translate(164.0625,292.9375)"/>
<path d="M0 0 C0 0.33 0 0.66 0 1 C-1.98 1.33 -3.96 1.66 -6 2 C-5.34 2.33 -4.68 2.66 -4 3 C-4.25 5.375 -4.25 5.375 -5 8 C-6.75 9.375 -6.75 9.375 -9 10 C-11.75 9.625 -11.75 9.625 -14 9 C-13.71827807 5.83062828 -13.51665615 3.64582019 -11.5 1.125 C-7.72592959 -0.57333168 -4.07515329 -0.235105 0 0 Z " fill="#DAD9DD" transform="translate(307,234)"/>
<path d="M0 0 C6.15234375 -0.09765625 6.15234375 -0.09765625 8 0 C9 1 9 1 9.09765625 2.84765625 C9.04882812 5.92382812 9.04882812 5.92382812 9 9 C7.68 9 6.36 9 5 9 C5 7.35 5 5.7 5 4 C3.68 4 2.36 4 1 4 C1 5.65 1 7.3 1 9 C0.34 8.67 -0.32 8.34 -1 8 C-1 6.68 -1 5.36 -1 4 C-1.66 4 -2.32 4 -3 4 C-3 5.65 -3 7.3 -3 9 C-3.33 9 -3.66 9 -4 9 C-4 7.02 -4 5.04 -4 3 C-2.68 2.67 -1.36 2.34 0 2 C0 1.34 0 0.68 0 0 Z " fill="#2D2C30" transform="translate(291,244)"/>
<path d="M0 0 C2.375 0.3125 2.375 0.3125 5 1 C7.4294516 4.6441774 7.16179575 6.71241272 7 11 C5.1875 11.625 5.1875 11.625 3 12 C2.01 11.34 1.02 10.68 0 10 C-0.29296875 7.6171875 -0.29296875 7.6171875 -0.1875 4.875 C-0.16042969 3.96492188 -0.13335937 3.05484375 -0.10546875 2.1171875 C-0.07066406 1.41851562 -0.03585938 0.71984375 0 0 Z " fill="#39383E" transform="translate(238,302)"/>
<path d="M0 0 C1.98 0.66 3.96 1.32 6 2 C6 2.66 6 3.32 6 4 C7.32 3.67 8.64 3.34 10 3 C10 4.32 10 5.64 10 7 C8.02 7.66 6.04 8.32 4 9 C3.67 10.98 3.34 12.96 3 15 C2.01 15 1.02 15 0 15 C-0.125 8.25 -0.125 8.25 1 6 C0.34 5.67 -0.32 5.34 -1 5 C-0.67 3.35 -0.34 1.7 0 0 Z " fill="#929398" transform="translate(318,301)"/>
<path d="M0 0 C0.99 0 1.98 0 3 0 C3.90901939 3.04842865 4.06173367 5.59661636 3.87890625 8.765625 C3.83056641 9.65507812 3.78222656 10.54453125 3.73242188 11.4609375 C3.64831055 12.84152344 3.64831055 12.84152344 3.5625 14.25 C3.51029297 15.18585938 3.45808594 16.12171875 3.40429688 17.0859375 C3.27493175 19.39098887 3.13997966 21.69557289 3 24 C2.67 24 2.34 24 2 24 C1.86722656 23.26394531 1.73445312 22.52789062 1.59765625 21.76953125 C1.33275391 20.30580078 1.33275391 20.30580078 1.0625 18.8125 C0.80146484 17.36810547 0.80146484 17.36810547 0.53515625 15.89453125 C-0.11832883 12.35998789 -0.77663319 8.85285507 -1.6875 5.375 C-2 3 -2 3 0 0 Z " fill="#29292A" transform="translate(220,264)"/>
<path d="M0 0 C-1.6254308 -0.14095064 -3.25034051 -0.28792087 -4.875 -0.4375 C-5.77992188 -0.51871094 -6.68484375 -0.59992188 -7.6171875 -0.68359375 C-10 -1 -10 -1 -12 -2 C-12 -1.01 -12 -0.02 -12 1 C-11.15695313 1.12117188 -10.31390625 1.24234375 -9.4453125 1.3671875 C-7.80175781 1.61855469 -7.80175781 1.61855469 -6.125 1.875 C-5.03445312 2.03742188 -3.94390625 2.19984375 -2.8203125 2.3671875 C0 3 0 3 2 5 C-4.45810245 4.00318287 -10.76571832 2.98363508 -17 1 C-17 0.34 -17 -0.32 -17 -1 C-18.32 -1.33 -19.64 -1.66 -21 -2 C-13.36906582 -6.47902658 -7.46506314 -3.89556168 0 0 Z " fill="#333338" transform="translate(184,294)"/>
<path d="M0 0 C1.76586914 0.25366211 1.76586914 0.25366211 4.03515625 0.77734375 C4.84404297 0.96103516 5.65292969 1.14472656 6.48632812 1.33398438 C7.33646484 1.53314453 8.18660156 1.73230469 9.0625 1.9375 C10.34350586 2.23043945 10.34350586 2.23043945 11.65039062 2.52929688 C13.76817052 3.01437495 15.88456101 3.50483011 18 4 C18 5.32 18 6.64 18 8 C17.360625 7.67 16.72125 7.34 16.0625 7 C14.23205433 5.92728775 14.23205433 5.92728775 13 6 C11.01993849 5.94167713 9.0407147 5.85349756 7.0625 5.75 C5.44021484 5.68039062 5.44021484 5.68039062 3.78515625 5.609375 C1 5 1 5 -0.37890625 2.953125 C-0.68634766 1.98632812 -0.68634766 1.98632812 -1 1 C-0.67 0.67 -0.34 0.34 0 0 Z " fill="#414147" transform="translate(168,295)"/>
<path d="M0 0 C0.66 0 1.32 0 2 0 C2 8.91 2 17.82 2 27 C1.01 26.67 0.02 26.34 -1 26 C-0.67 17.42 -0.34 8.84 0 0 Z " fill="#A3A3AA" transform="translate(187,272)"/>
<path d="M0 0 C0 0.33 0 0.66 0 1 C-1.2065625 1.185625 -1.2065625 1.185625 -2.4375 1.375 C-3.283125 1.58125 -4.12875 1.7875 -5 2 C-5.33 2.66 -5.66 3.32 -6 4 C-11.23056146 5.81834969 -16.51027161 6.23360546 -22 6 C-21.67 5.01 -21.34 4.02 -21 3 C-14.21664354 0.57950717 -7.16829315 -0.4216643 0 0 Z " fill="#3F3F40" transform="translate(184,258)"/>
<path d="M0 0 C3 2 3 2 3.546875 3.953125 C3.94964724 8.50754954 4.04022453 12.49236036 3 17 C1.68 17 0.36 17 -1 17 C-1.12036664 11.22240116 -0.8320582 5.72040011 0 0 Z " fill="#A2A1A7" transform="translate(255,255)"/>
<path d="M0 0 C3.625 1.5 3.625 1.5 6 3 C6 3.33 6 3.66 6 4 C-0.57039711 4.12635379 -0.57039711 4.12635379 -3.125 3.375 C-5.81391484 2.83721703 -7.48700633 3.9828359 -10 5 C-13.3125 5.125 -13.3125 5.125 -16 5 C-12.93274982 -1.13450037 -5.93485537 -0.73830737 0 0 Z " fill="#404044" transform="translate(318,229)"/>
<path d="M0 0 C1.2065625 0.0309375 1.2065625 0.0309375 2.4375 0.0625 C2.1075 0.7225 1.7775 1.3825 1.4375 2.0625 C0.7775 2.0625 0.1175 2.0625 -0.5625 2.0625 C-0.5625 2.7225 -0.5625 3.3825 -0.5625 4.0625 C1.0875 4.0625 2.7375 4.0625 4.4375 4.0625 C4.7675 5.0525 5.0975 6.0425 5.4375 7.0625 C2.7975 6.7325 0.1575 6.4025 -2.5625 6.0625 C-2.2325 8.0425 -1.9025 10.0225 -1.5625 12.0625 C-3.2125 11.7325 -4.8625 11.4025 -6.5625 11.0625 C-6.5625 9.7425 -6.5625 8.4225 -6.5625 7.0625 C-5.5725 7.0625 -4.5825 7.0625 -3.5625 7.0625 C-3.583125 6.093125 -3.60375 5.12375 -3.625 4.125 C-3.54257968 0.08640438 -3.54257968 0.08640438 0 0 Z " fill="#37373B" transform="translate(157.5625,295.9375)"/>
<path d="M0 0 C2.3125 -0.3125 2.3125 -0.3125 5 0 C7.72508509 3.28889579 8.36146791 5.78287443 8 10 C5.625 9.6875 5.625 9.6875 3 9 C0.87491756 5.81237635 0.4979837 3.73487777 0 0 Z " fill="#414045" transform="translate(317,253)"/>
<path d="M0 0 C1.67542976 0.28604898 3.34385343 0.61781233 5 1 C4.01 1.33 3.02 1.66 2 2 C2 5.3 2 8.6 2 12 C3.32 12.33 4.64 12.66 6 13 C5.67 13.66 5.34 14.32 5 15 C2.5625 14.625 2.5625 14.625 0 14 C-1.31164842 11.37670316 -1.13262846 9.36301375 -1.125 6.4375 C-1.12757813 5.44621094 -1.13015625 4.45492188 -1.1328125 3.43359375 C-1 1 -1 1 0 0 Z " fill="#55555A" transform="translate(307,273)"/>
<path d="M0 0 C0.75 1.75 0.75 1.75 1 4 C-1.51818326 7.29300888 -4.10918157 8.70306052 -8 10 C-7.67895459 6.46850054 -7.34914783 4.44225392 -5.125 1.625 C-3 0 -3 0 0 0 Z " fill="#3D3C43" transform="translate(246,255)"/>
<path d="M0 0 C2.31 0 4.62 0 7 0 C5.54997977 4.10839064 3.6020866 7.50344613 1 11 C0.34 11 -0.32 11 -1 11 C-1.125 3.375 -1.125 3.375 0 0 Z " fill="#1A1A1C" transform="translate(307,211)"/>
<path d="M0 0 C1.65 0 3.3 0 5 0 C5.14285714 7.42857143 5.14285714 7.42857143 4 11 C2.68 11 1.36 11 0 11 C0 7.37 0 3.74 0 0 Z " fill="#9F9FA5" transform="translate(253,274)"/>
<path d="M0 0 C0.66 0 1.32 0 2 0 C2.226875 1.11375 2.45375 2.2275 2.6875 3.375 C3.60623658 7.16038373 3.60623658 7.16038373 6.625 8.4375 C7.40875 8.623125 8.1925 8.80875 9 9 C9.33 8.34 9.66 7.68 10 7 C10 8.98 10 10.96 10 13 C5.16592748 12.58565093 3.10462326 10.62206046 0 7 C-1.04449911 3.86650268 -0.93423645 3.01031744 0 0 Z " fill="#8B8A8F" transform="translate(316,254)"/>
<path d="M0 0 C0.8125 2.625 0.8125 2.625 1 5 C-1 4 -1 4 -2 1 C-7.445 0.505 -7.445 0.505 -13 0 C-13.33 0.99 -13.66 1.98 -14 3 C-14.66 2.67 -15.32 2.34 -16 2 C-16 1.34 -16 0.68 -16 0 C-20.95 0 -25.9 0 -31 0 C-31 -0.33 -31 -0.66 -31 -1 C-4.22259136 -2.86046512 -4.22259136 -2.86046512 0 0 Z " fill="#C8C8C9" transform="translate(339,234)"/>
<path d="M0 0 C2.475 0.99 2.475 0.99 5 2 C5 3.98 5 5.96 5 8 C3.20676747 7.71812064 1.41542874 7.4241719 -0.375 7.125 C-1.37273437 6.96257812 -2.37046875 6.80015625 -3.3984375 6.6328125 C-6 6 -6 6 -8 4 C-7.01 4 -6.02 4 -5 4 C-4.67 3.34 -4.34 2.68 -4 2 C-4 2.99 -4 3.98 -4 5 C-3.34 5 -2.68 5 -2 5 C-1.34 3.35 -0.68 1.7 0 0 Z " fill="#55545A" transform="translate(184,312)"/>
<path d="M0 0 C1.32 0.33 2.64 0.66 4 1 C4 3.31 4 5.62 4 8 C4.66 8.33 5.32 8.66 6 9 C6 9.66 6 10.32 6 11 C5.443125 10.814375 4.88625 10.62875 4.3125 10.4375 C1.600867 9.92448835 -0.34371039 10.3359276 -3 11 C-3 10.01 -3 9.02 -3 8 C-2.01 8 -1.02 8 0 8 C0 5.36 0 2.72 0 0 Z " fill="#323234" transform="translate(195,248)"/>
<path d="M0 0 C0.66 0 1.32 0 2 0 C2.8320582 5.72040011 3.12036664 11.22240116 3 17 C2.01 17.33 1.02 17.66 0 18 C-1.50875941 11.96496237 -0.64186094 6.10261631 0 0 Z " fill="#6F6F75" transform="translate(304,214)"/>
<path d="M0 0 C0.33 0 0.66 0 1 0 C1 4.29 1 8.58 1 13 C0.01 13.33 -0.98 13.66 -2 14 C-1.67 14.66 -1.34 15.32 -1 16 C-1.66 16 -2.32 16 -3 16 C-3.33 16.66 -3.66 17.32 -4 18 C-4 14.04 -4 10.08 -4 6 C-3.01 5.67 -2.02 5.34 -1 5 C-0.67 3.35 -0.34 1.7 0 0 Z " fill="#828187" transform="translate(222,293)"/>
<path d="M0 0 C-1.98 0.99 -1.98 0.99 -4 2 C-3.67 3.32 -3.34 4.64 -3 6 C-3.66 6 -4.32 6 -5 6 C-4.67 6.66 -4.34 7.32 -4 8 C-3.93003986 9.70702735 -3.91559846 11.41668003 -3.9375 13.125 C-3.94652344 14.03507812 -3.95554687 14.94515625 -3.96484375 15.8828125 C-3.98224609 16.93082031 -3.98224609 16.93082031 -4 18 C-4.33 18 -4.66 18 -5 18 C-8 4.63106796 -8 4.63106796 -8 1 C-5.29120665 -0.35439668 -2.99066732 -0.06501451 0 0 Z " fill="#C1C1C4" transform="translate(267,253)"/>
<path d="M0 0 C0.99 0 1.98 0 3 0 C3.29341888 5.67276511 3.00559652 8.99067246 0 14 C-0.33 14 -0.66 14 -1 14 C-1.02685938 11.85423363 -1.04633088 9.70837355 -1.0625 7.5625 C-1.07410156 6.36753906 -1.08570313 5.17257812 -1.09765625 3.94140625 C-1 1 -1 1 0 0 Z " fill="#0E0D11" transform="translate(213,288)"/>
<path d="M0 0 C2.31 0 4.62 0 7 0 C6.01 0.495 6.01 0.495 5 1 C5.0825 2.0725 5.165 3.145 5.25 4.25 C5 8 5 8 1 12 C0.67 8.04 0.34 4.08 0 0 Z " fill="#A7A6AC" transform="translate(308,287)"/>
<path d="M0 0 C0.33 0 0.66 0 1 0 C1 9.24 1 18.48 1 28 C0.01 27.67 -0.98 27.34 -2 27 C-2 25.02 -2 23.04 -2 21 C-1.34 21 -0.68 21 0 21 C0 14.07 0 7.14 0 0 Z " fill="#88888E" transform="translate(197,284)"/>
<path d="M0 0 C1.32 0 2.64 0 4 0 C4 3.3 4 6.6 4 10 C2.68 10 1.36 10 0 10 C0 6.7 0 3.4 0 0 Z " fill="#A7A8AD" transform="translate(309,275)"/>
<path d="M0 0 C2 1 2 1 3.125 4.0625 C3.41375 5.031875 3.7025 6.00125 4 7 C3.01 7.66 2.02 8.32 1 9 C0.74984127 12.58357241 0.74984127 12.58357241 1 16 C-2.10551666 16 -3.35261084 15.4606285 -6 14 C-4.35 14 -2.7 14 -1 14 C-1 10.7 -1 7.4 -1 4 C-0.34 4 0.32 4 1 4 C0.67 2.68 0.34 1.36 0 0 Z " fill="#5D5D62" transform="translate(313,258)"/>
<path d="M0 0 C0.66 0 1.32 0 2 0 C2.33 5.61 2.66 11.22 3 17 C1.68 16.67 0.36 16.34 -1 16 C-0.67 10.72 -0.34 5.44 0 0 Z " fill="#929297" transform="translate(319,214)"/>
<path d="M0 0 C2.86688248 0.09096556 5.70300515 0.23767988 8.5625 0.4375 C9.36880859 0.48970703 10.17511719 0.54191406 11.00585938 0.59570312 C13.00421738 0.72577376 15.00215386 0.86229056 17 1 C14.68897401 3.11434293 13.48490534 3.97396009 10.30859375 4.14453125 C9.36113281 4.03496094 8.41367188 3.92539062 7.4375 3.8125 C6.48746094 3.71582031 5.53742188 3.61914062 4.55859375 3.51953125 C2 3 2 3 -1 1 C-0.67 0.67 -0.34 0.34 0 0 Z " fill="#1A191E" transform="translate(194,263)"/>
<path d="M0 0 C-0.99 0.495 -0.99 0.495 -2 1 C-1.814375 1.53625 -1.62875 2.0725 -1.4375 2.625 C-0.88580676 5.61990614 -1.39402556 8.03745829 -2 11 C-2.33 11 -2.66 11 -3 11 C-3.144375 10.071875 -3.28875 9.14375 -3.4375 8.1875 C-3.92100111 4.99274889 -3.92100111 4.99274889 -5 2 C-6.98 2 -8.96 2 -11 2 C-11.33 2.99 -11.66 3.98 -12 5 C-12 4.01 -12 3.02 -12 2 C-12.99 2.33 -13.98 2.66 -15 3 C-15 2.34 -15 1.68 -15 1 C-9.92928099 0.28832014 -5.11791642 -0.10662326 0 0 Z " fill="#77767B" transform="translate(261,253)"/>
<path d="M0 0 C0 1.98 0 3.96 0 6 C-2.97 5.67 -5.94 5.34 -9 5 C-4.16129032 0 -4.16129032 0 0 0 Z " fill="#9A9A9F" transform="translate(160,286)"/>
<path d="M0 0 C2.31 0.33 4.62 0.66 7 1 C6.505 1.556875 6.01 2.11375 5.5 2.6875 C3.75245633 5.38162983 3.73781251 6.85375007 4 10 C3.34 10 2.68 10 2 10 C2 8.68 2 7.36 2 6 C1.34 6 0.68 6 0 6 C-0.33 6.66 -0.66 7.32 -1 8 C-1.125 2.25 -1.125 2.25 0 0 Z " fill="#2D2D2D" transform="translate(160,263)"/>
<path d="M0 0 C0.99 0 1.98 0 3 0 C3 0.99 3 1.98 3 3 C1.96875 3.12375 0.9375 3.2475 -0.125 3.375 C-3.62116846 3.93889814 -6.68397627 4.78682059 -10 6 C-10 4.68 -10 3.36 -10 2 C-9.04287109 1.90912109 -9.04287109 1.90912109 -8.06640625 1.81640625 C-6.82697266 1.69072266 -6.82697266 1.69072266 -5.5625 1.5625 C-4.73878906 1.48128906 -3.91507812 1.40007812 -3.06640625 1.31640625 C-1.01337975 1.21069185 -1.01337975 1.21069185 0 0 Z " fill="#AEADB2" transform="translate(326,245)"/>
<path d="M0 0 C1.9375 0.6875 1.9375 0.6875 4 2 C4.875 4.5 4.875 4.5 5 7 C4.34 7.66 3.68 8.32 3 9 C2.01 9 1.02 9 0 9 C0 10.65 0 12.3 0 14 C-0.33 14 -0.66 14 -1 14 C-1 10.7 -1 7.4 -1 4 C-0.67 4.99 -0.34 5.98 0 7 C0.66 6.67 1.32 6.34 2 6 C2 5.01 2 4.02 2 3 C1.01 2.34 0.02 1.68 -1 1 C-0.67 0.67 -0.34 0.34 0 0 Z " fill="#57585D" transform="translate(329,298)"/>
<path d="M0 0 C0 1.98 0 3.96 0 6 C-2.31 6 -4.62 6 -7 6 C-6.6875 4.125 -6.6875 4.125 -6 2 C-3 0 -3 0 0 0 Z " fill="#464649" transform="translate(340,291)"/>
<path d="M0 0 C0.66 0.33 1.32 0.66 2 1 C2 6.61 2 12.22 2 18 C1.67 18 1.34 18 1 18 C-0.3792223 11.69661213 -1.41117949 6.3503077 0 0 Z " fill="#313035" transform="translate(221,270)"/>
<path d="M0 0 C0 1.98 0 3.96 0 6 C-0.33 5.34 -0.66 4.68 -1 4 C-2.65 4.33 -4.3 4.66 -6 5 C-6.33 5.99 -6.66 6.98 -7 8 C-7.1875 5.125 -7.1875 5.125 -7 2 C-4 0 -4 0 0 0 Z " fill="#3A3B40" transform="translate(328,308)"/>
<path d="M0 0 C2 2 2 2 2.1953125 3.9453125 C2.13020833 5.96354167 2.06510417 7.98177083 2 10 C1.01 10 0.02 10 -1 10 C-1.9765625 3.9453125 -1.9765625 3.9453125 -2 2 C-1.34 1.34 -0.68 0.68 0 0 Z " fill="#9C9DA3" transform="translate(214,304)"/>
<path d="M0 0 C0.66 0.33 1.32 0.66 2 1 C2 4.3 2 7.6 2 11 C1.01 11 0.02 11 -1 11 C-1.02688151 9.35425434 -1.04634123 7.70838587 -1.0625 6.0625 C-1.07410156 5.14597656 -1.08570313 4.22945313 -1.09765625 3.28515625 C-1 1 -1 1 0 0 Z " fill="#5E5F63" transform="translate(251,274)"/>
<path d="M0 0 C0.66 0.33 1.32 0.66 2 1 C2.46806645 3.33744294 2.82669794 5.69739079 3.125 8.0625 C3.29257813 9.35285156 3.46015625 10.64320313 3.6328125 11.97265625 C3.75398437 12.97167969 3.87515625 13.97070312 4 15 C3.01 15.66 2.02 16.32 1 17 C1 12.38 1 7.76 1 3 C0.34 3 -0.32 3 -1 3 C-0.67 2.01 -0.34 1.02 0 0 Z " fill="#3E3E43" transform="translate(215,297)"/>
<path d="M0 0 C2.31 0.66 4.62 1.32 7 2 C7.33 3.32 7.66 4.64 8 6 C6.35 6.33 4.7 6.66 3 7 C2.67 5.68 2.34 4.36 2 3 C1.34 3 0.68 3 0 3 C0 2.01 0 1.02 0 0 Z " fill="#3F3F40" transform="translate(315,208)"/>
<path d="M0 0 C0.99 0.33 1.98 0.66 3 1 C4.1875 3.5625 4.1875 3.5625 5 6 C3.68 6 2.36 6 1 6 C1 6.66 1 7.32 1 8 C0.34 8 -0.32 8 -1 8 C-1.04241723 5.66705225 -1.04092937 3.33297433 -1 1 C-0.67 0.67 -0.34 0.34 0 0 Z " fill="#414047" transform="translate(240,302)"/>
<path d="M0 0 C2.33294775 -0.04241723 4.66702567 -0.04092937 7 0 C8 1 8 1 8.09765625 4.16015625 C8.08605469 5.44792969 8.07445312 6.73570312 8.0625 8.0625 C8.05347656 9.35285156 8.04445313 10.64320313 8.03515625 11.97265625 C8.02355469 12.97167969 8.01195312 13.97070312 8 15 C7.67 15 7.34 15 7 15 C7 10.71 7 6.42 7 2 C4.69 2.33 2.38 2.66 0 3 C0 2.01 0 1.02 0 0 Z " fill="#4D4C52" transform="translate(252,272)"/>
<path d="M0 0 C0 2.97 0 5.94 0 9 C-1.32 9 -2.64 9 -4 9 C-4.368 3.48 -4.368 3.48 -2.5625 1.125 C-1 0 -1 0 0 0 Z " fill="#2A2A2A" transform="translate(170,278)"/>
<path d="M0 0 C2.00720923 0.28674418 4.0085944 0.61866701 6 1 C6 1.99 6 2.98 6 4 C6.66 4.33 7.32 4.66 8 5 C5.69 5 3.38 5 1 5 C0.34 3.68 -0.32 2.36 -1 1 C-0.67 0.67 -0.34 0.34 0 0 Z " fill="#3C3B41" transform="translate(168,295)"/>
<path d="M0 0 C0.33 0.66 0.66 1.32 1 2 C1.66 2 2.32 2 3 2 C3.33 4.31 3.66 6.62 4 9 C2.68 9 1.36 9 0 9 C0 6.03 0 3.06 0 0 Z " fill="#AAA9AF" transform="translate(254,263)"/>
<path d="M0 0 C0.33 0.99 0.66 1.98 1 3 C-0.79133978 3.05391993 -2.58313899 3.09275571 -4.375 3.125 C-5.37273437 3.14820313 -6.37046875 3.17140625 -7.3984375 3.1953125 C-10 3 -10 3 -12 1 C-7.93631321 0.22596442 -4.13574827 -0.0984702 0 0 Z " fill="#A3A2A7" transform="translate(303,313)"/>
<path d="M0 0 C2.5 0.875 2.5 0.875 3.8125 3.4375 C4.1528125 4.6440625 4.1528125 4.6440625 4.5 5.875 C1.15626525 5.31771087 -1.53312999 4.52326111 -4.5 2.875 C-4.5 2.215 -4.5 1.555 -4.5 0.875 C-2.5 -0.125 -2.5 -0.125 0 0 Z " fill="#5E5E62" transform="translate(161.5,297.125)"/>
<path d="M0 0 C0.99 0 1.98 0 3 0 C2.67 2.31 2.34 4.62 2 7 C0.68 7 -0.64 7 -2 7 C-2.125 4.625 -2.125 4.625 -2 2 C-1.34 1.34 -0.68 0.68 0 0 Z " fill="#1D1C1F" transform="translate(220,291)"/>
<path d="M0 0 C-0.33 1.32 -0.66 2.64 -1 4 C-3.64 4.33 -6.28 4.66 -9 5 C-9 4.01 -9 3.02 -9 2 C-2.25 0 -2.25 0 0 0 Z " fill="#CCCCCE" transform="translate(248,264)"/>
<path d="M0 0 C1.24546405 2.49092811 0.7767578 3.41080733 0 6 C-1.65 6 -3.3 6 -5 6 C-5 4.35 -5 2.7 -5 1 C-3.35 0.67 -1.7 0.34 0 0 Z " fill="#A2A1A7" transform="translate(293,237)"/>
<path d="M0 0 C-1.485 2.475 -1.485 2.475 -3 5 C-5.97 4.505 -5.97 4.505 -9 4 C-8.34 3.67 -7.68 3.34 -7 3 C-6.67 2.01 -6.34 1.02 -6 0 C-3.50907189 -1.24546405 -2.58919267 -0.7767578 0 0 Z " fill="#414045" transform="translate(185,312)"/>
<path d="M0 0 C-0.60328125 0.13277344 -1.2065625 0.26554687 -1.828125 0.40234375 C-2.62734375 0.57894531 -3.4265625 0.75554687 -4.25 0.9375 C-5.03890625 1.11152344 -5.8278125 1.28554688 -6.640625 1.46484375 C-8.76878703 1.947556 -10.88532842 2.46163178 -13 3 C-12.67 1.68 -12.34 0.36 -12 -1 C-3.96428571 -2.33928571 -3.96428571 -2.33928571 0 0 Z " fill="#18181A" transform="translate(179,288)"/>
<path d="M0 0 C2.60334924 2.71182212 2.99456691 3.89133813 3.1875 7.75 C3.125625 8.8225 3.06375 9.895 3 11 C1.68 10.34 0.36 9.68 -1 9 C-0.67 6.03 -0.34 3.06 0 0 Z " fill="#DCDBE0" transform="translate(259,260)"/>
<path d="M0 0 C4.29 0 8.58 0 13 0 C13 1.32 13 2.64 13 4 C12.01 4 11.02 4 10 4 C10 3.34 10 2.68 10 2 C6.7 1.67 3.4 1.34 0 1 C0 0.67 0 0.34 0 0 Z " fill="#97969B" transform="translate(209,245)"/>
<path d="M0 0 C6.4 -0.49230769 6.4 -0.49230769 9.4375 2 C10.2109375 2.99 10.2109375 2.99 11 4 C8.03 4 5.06 4 2 4 C1.34 2.68 0.68 1.36 0 0 Z " fill="#111115" transform="translate(152,293)"/>
<path d="M0 0 C0.33 0 0.66 0 1 0 C1.04898438 0.62648438 1.09796875 1.25296875 1.1484375 1.8984375 C1.22320312 2.71570313 1.29796875 3.53296875 1.375 4.375 C1.44460937 5.18710937 1.51421875 5.99921875 1.5859375 6.8359375 C1.82892588 9.20334191 1.82892588 9.20334191 4 11 C3.360625 11.12375 2.72125 11.2475 2.0625 11.375 C1.381875 11.58125 0.70125 11.7875 0 12 C-0.33 12.66 -0.66 13.32 -1 14 C-1.66 13.01 -2.32 12.02 -3 11 C-2.34 10.34 -1.68 9.68 -1 9 C-0.53993654 6.79749008 -0.53993654 6.79749008 -0.375 4.375 C-0.30023438 3.55773437 -0.22546875 2.74046875 -0.1484375 1.8984375 C-0.09945312 1.27195312 -0.05046875 0.64546875 0 0 Z " fill="#94949C" transform="translate(237,303)"/>
<path d="M0 0 C0 0.99 0 1.98 0 3 C-3.3 3 -6.6 3 -10 3 C-8.68 2.67 -7.36 2.34 -6 2 C-6 1.34 -6 0.68 -6 0 C-3 -1 -3 -1 0 0 Z " fill="#3A393E" transform="translate(193,262)"/>
<path d="M0 0 C2.31 0 4.62 0 7 0 C6.01 0.495 6.01 0.495 5 1 C5.33 3.31 5.66 5.62 6 8 C4.35 7.67 2.7 7.34 1 7 C1.66 6.67 2.32 6.34 3 6 C3 4.68 3 3.36 3 2 C2.01 1.34 1.02 0.68 0 0 Z " fill="#CCCBD0" transform="translate(309,245)"/>
<path d="M0 0 C0.99 0.33 1.98 0.66 3 1 C2.38125 1.2475 1.7625 1.495 1.125 1.75 C-1.35068687 3.20628639 -1.95125002 4.37812506 -3 7 C-2.01 7.33 -1.02 7.66 0 8 C-1.65 8.66 -3.3 9.32 -5 10 C-4.56802365 5.2482602 -3.67230705 3.07999946 0 0 Z " fill="#2A2A2F" transform="translate(243,255)"/>
<path d="M0 0 C1.32 0.66 2.64 1.32 4 2 C3.67 3.65 3.34 5.3 3 7 C0.525 6.01 0.525 6.01 -2 5 C-1.34 3.35 -0.68 1.7 0 0 Z " fill="#DAD9DC" transform="translate(241,293)"/>
<path d="M0 0 C1.32 0 2.64 0 4 0 C3.45276317 3.37462715 2.9451 5.08235 1 8 C0 7 0 7 -0.0625 3.4375 C-0.041875 2.303125 -0.02125 1.16875 0 0 Z " fill="#D7D6DB" transform="translate(312,254)"/>
<path d="M0 0 C0.33 0 0.66 0 1 0 C1 1.65 1 3.3 1 5 C2.65 5.33 4.3 5.66 6 6 C5.67 6.66 5.34 7.32 5 8 C2.03 8 -0.94 8 -4 8 C-2.68 7.67 -1.36 7.34 0 7 C0 4.69 0 2.38 0 0 Z " fill="#B3B2B5" transform="translate(300,247)"/>
<path d="M0 0 C1.89492188 0.15275391 1.89492188 0.15275391 3.828125 0.30859375 C4.79234375 0.39238281 5.7565625 0.47617188 6.75 0.5625 C6.75 0.8925 6.75 1.2225 6.75 1.5625 C4.50135275 1.78495975 2.25097377 1.98996557 0 2.1875 C-1.87945312 2.36152344 -1.87945312 2.36152344 -3.796875 2.5390625 C-7.08586903 2.56138599 -8.56020776 2.34211002 -11.25 0.5625 C-7.43483536 -0.73812431 -3.97438237 -0.33119853 0 0 Z " fill="#B6B5BA" transform="translate(329.25,251.4375)"/>
<path d="M0 0 C1.32 0.33 2.64 0.66 4 1 C3.67 2.98 3.34 4.96 3 7 C2.01 7 1.02 7 0 7 C0 4.69 0 2.38 0 0 Z " fill="#535355" transform="translate(195,248)"/>
<path d="M0 0 C2.475 0.495 2.475 0.495 5 1 C5 2.32 5 3.64 5 5 C3.35 4.67 1.7 4.34 0 4 C0 2.68 0 1.36 0 0 Z " fill="#1E1F23" transform="translate(151,303)"/>
<path d="M0 0 C1.98 0.66 3.96 1.32 6 2 C5.67 2.99 5.34 3.98 5 5 C3.02 5.33 1.04 5.66 -1 6 C-0.67 4.02 -0.34 2.04 0 0 Z " fill="#A5A5A8" transform="translate(318,301)"/>
<path d="M0 0 C2.97 0.33 5.94 0.66 9 1 C9 1.33 9 1.66 9 2 C7.02 2.33 5.04 2.66 3 3 C3 3.66 3 4.32 3 5 C2.01 4.67 1.02 4.34 0 4 C0 2.68 0 1.36 0 0 Z " fill="#454549" transform="translate(150,291)"/>
<path d="M0 0 C0.99 0.33 1.98 0.66 3 1 C3 2.98 3 4.96 3 7 C2.01 7 1.02 7 0 7 C0 4.69 0 2.38 0 0 Z " fill="#09090B" transform="translate(297,246)"/>
<path d="M0 0 C0.33 0 0.66 0 1 0 C1.125 7.75 1.125 7.75 0 10 C-1.65 9.67 -3.3 9.34 -5 9 C-4.34 8.34 -3.68 7.68 -3 7 C-2.01 7 -1.02 7 0 7 C0 4.69 0 2.38 0 0 Z " fill="#939298" transform="translate(192,303)"/>
<path d="M0 0 C0.33 0 0.66 0 1 0 C1 1.65 1 3.3 1 5 C1.99 5.33 2.98 5.66 4 6 C3.01 6 2.02 6 1 6 C1 7.65 1 9.3 1 11 C0.67 11 0.34 11 0 11 C-1.7578125 5.04296875 -1.7578125 5.04296875 -2 3 C-1.34 2.01 -0.68 1.02 0 0 Z " fill="#353538" transform="translate(217,293)"/>
<path d="M0 0 C2 1 2 1 3.125 4.0625 C3.41375 5.031875 3.7025 6.00125 4 7 C3.01 7.66 2.02 8.32 1 9 C0 2.25 0 2.25 0 0 Z " fill="#9A999C" transform="translate(313,258)"/>
<path d="M0 0 C1.32 0.33 2.64 0.66 4 1 C4 2.65 4 4.3 4 6 C3.34 6 2.68 6 2 6 C2 5.34 2 4.68 2 4 C1.34 4 0.68 4 0 4 C0 2.68 0 1.36 0 0 Z " fill="#17171A" transform="translate(182,264)"/>
<path d="M0 0 C1.32 0 2.64 0 4 0 C4 1.65 4 3.3 4 5 C3.01 5.495 3.01 5.495 2 6 C2 5.01 2 4.02 2 3 C1.34 3 0.68 3 0 3 C0 2.01 0 1.02 0 0 Z " fill="#A7A6AC" transform="translate(308,254)"/>
<path d="M0 0 C2.97 0 5.94 0 9 0 C6.07735566 1.46132217 4.07536854 2.34099246 1 3 C0.67 2.01 0.34 1.02 0 0 Z " fill="#222126" transform="translate(210,247)"/>
<path d="M0 0 C1.11375 0.3403125 1.11375 0.3403125 2.25 0.6875 C1.92 1.3475 1.59 2.0075 1.25 2.6875 C-1.39 2.6875 -4.03 2.6875 -6.75 2.6875 C-4.29511132 0.41445492 -3.41240272 -0.38777304 0 0 Z " fill="#9E9DA5" transform="translate(205.75,244.3125)"/>
</svg>
